<?xml version="1.0" encoding="UTF-8"?>
<svg version="1.1" xmlns="http://www.w3.org/2000/svg" width="256" height="256">
<path d="M0 0 C3.0625 0.1875 3.0625 0.1875 5.0625 2.1875 C5.20757695 4.93235593 5.24902423 7.57230543 5.1875 10.3125 C5.17847656 11.06660156 5.16945313 11.82070313 5.16015625 12.59765625 C5.1365687 14.46107254 5.10069719 16.32432593 5.0625 18.1875 C9.3525 18.1875 13.6425 18.1875 18.0625 18.1875 C18.05089844 16.97191406 18.03929688 15.75632812 18.02734375 14.50390625 C18.01796722 12.91927236 18.00886687 11.33463682 18 9.75 C17.99162109 8.94755859 17.98324219 8.14511719 17.97460938 7.31835938 C17.9659857 5.27454779 18.0102185 3.23066098 18.0625 1.1875 C19.0625 0.1875 19.0625 0.1875 22 -0.0625 C23.010625 0.02 24.02125 0.1025 25.0625 0.1875 C27.51641569 3.86837353 27.29052759 6.63105588 27.1875 10.875 C27.17847656 11.57689453 27.16945313 12.27878906 27.16015625 13.00195312 C27.13663704 14.73061525 27.10076713 16.45910145 27.0625 18.1875 C31.0225 18.1875 34.9825 18.1875 39.0625 18.1875 C39.03929687 17.13949219 39.01609375 16.09148438 38.9921875 15.01171875 C38.97342697 13.63281963 38.95522707 12.2539128 38.9375 10.875 C38.92074219 10.18470703 38.90398437 9.49441406 38.88671875 8.78320312 C38.85032206 5.01614604 38.91871136 3.40318296 41.0625 0.1875 C44.125 -0.0625 44.125 -0.0625 47.0625 0.1875 C48.0625 1.1875 48.0625 1.1875 48.16015625 5.00390625 C48.15348089 6.58596682 48.14151875 8.16801159 48.125 9.75 C48.12048828 10.55630859 48.11597656 11.36261719 48.11132812 12.19335938 C48.09950518 14.19143756 48.08156914 16.18947783 48.0625 18.1875 C52.3525 18.1875 56.6425 18.1875 61.0625 18.1875 C61.03929687 17.05570313 61.01609375 15.92390625 60.9921875 14.7578125 C60.97343099 13.27604825 60.95523066 11.79427688 60.9375 10.3125 C60.92074219 9.56613281 60.90398437 8.81976563 60.88671875 8.05078125 C60.8691041 6.09555539 60.95929811 4.14007979 61.0625 2.1875 C63.0625 0.1875 63.0625 0.1875 66.1875 0.0625 C67.13625 0.10375 68.085 0.145 69.0625 0.1875 C70.65662284 3.37574568 70.16424735 6.81646662 70.125 10.3125 C70.12048828 11.06660156 70.11597656 11.82070313 70.11132812 12.59765625 C70.09953499 14.46097127 70.08159942 16.32424555 70.0625 18.1875 C73.3625 18.1875 76.6625 18.1875 80.0625 18.1875 C81.26522819 20.59295638 81.16321472 22.13746953 81.125 24.8125 C81.11597656 25.62976563 81.10695312 26.44703125 81.09765625 27.2890625 C81.08025391 28.22878906 81.08025391 28.22878906 81.0625 29.1875 C82.88587891 29.17009766 82.88587891 29.17009766 84.74609375 29.15234375 C86.33072764 29.14296722 87.91536318 29.13386687 89.5 29.125 C90.30244141 29.11662109 91.10488281 29.10824219 91.93164062 29.09960938 C93.97545221 29.0909857 96.01933902 29.1352185 98.0625 29.1875 C99.0625 30.1875 99.0625 30.1875 99.25 33.125 C99.0625 36.1875 99.0625 36.1875 97.0625 38.1875 C94.31764407 38.33257695 91.67769457 38.37402423 88.9375 38.3125 C88.18339844 38.30347656 87.42929688 38.29445312 86.65234375 38.28515625 C84.78892746 38.2615687 82.92567407 38.22569719 81.0625 38.1875 C81.0625 42.1475 81.0625 46.1075 81.0625 50.1875 C82.52888916 50.1560791 82.52888916 50.1560791 84.02490234 50.12402344 C87.6962993 50.0509228 91.36763372 50.00544958 95.03955078 49.96777344 C96.62039045 49.94781578 98.20115783 49.9206394 99.78173828 49.88574219 C119.77651722 49.45574694 119.77651722 49.45574694 126.98583984 55.90917969 C133.26291202 62.49145481 133.34919592 69.67016551 133.28955078 78.33349609 C133.28984283 79.4462793 133.29013489 80.5590625 133.29043579 81.70556641 C133.28904537 85.37410347 133.27349741 89.04243602 133.2578125 92.7109375 C133.25408136 95.25826913 133.25123486 97.80560221 133.24923706 100.35293579 C133.24238781 106.36640803 133.22663388 112.37979284 133.20653808 118.39323008 C133.18414944 125.24207986 133.17317821 132.09093322 133.16314721 138.93981051 C133.14226674 153.02241408 133.10710931 167.10495303 133.0625 181.1875 C133.63282959 181.18226318 134.20315918 181.17702637 134.79077148 181.17163086 C137.36050323 181.15091779 139.93021747 181.1378581 142.5 181.125 C143.39783203 181.11662109 144.29566406 181.10824219 145.22070312 181.09960938 C146.50170898 181.09477539 146.50170898 181.09477539 147.80859375 181.08984375 C148.59935303 181.08460693 149.3901123 181.07937012 150.20483398 181.07397461 C152.0625 181.1875 152.0625 181.1875 153.0625 182.1875 C153.24453793 185.22246026 153.34092499 188.21278093 153.375 191.25 C153.40400391 192.08466797 153.43300781 192.91933594 153.46289062 193.77929688 C153.53835534 201.22708411 151.56458709 206.36463252 146.625 211.9375 C145.779375 212.68 144.93375 213.4225 144.0625 214.1875 C143.258125 214.909375 142.45375 215.63125 141.625 216.375 C136.35498911 220.10256868 131.09759111 220.48073851 124.8087616 220.45492554 C123.5855312 220.46172221 123.5855312 220.46172221 122.33758909 220.46865618 C119.61326626 220.48128586 116.88914372 220.47968074 114.16479492 220.47802734 C112.20809167 220.48401349 110.25139078 220.49081924 108.29469299 220.49838257 C102.98468334 220.51604106 97.67473816 220.52073789 92.36470199 220.52201414 C89.04555514 220.52343639 85.72642465 220.5277074 82.40728188 220.53300858 C70.82318711 220.55150841 59.23913835 220.55967925 47.6550293 220.55810547 C36.86456437 220.55690411 26.07429949 220.57800551 15.28388518 220.6095928 C6.01320239 220.6357622 -3.25741509 220.64647248 -12.52813452 220.64519465 C-18.06220673 220.64468521 -23.59610114 220.65035858 -29.13013649 220.67155075 C-34.33653675 220.69094418 -39.54258981 220.69104989 -44.74900246 220.67651749 C-46.65611275 220.67442967 -48.56324485 220.67912864 -50.47031784 220.6912384 C-70.6029642 220.81076436 -70.6029642 220.81076436 -78.75 213.75 C-79.471875 212.904375 -80.19375 212.05875 -80.9375 211.1875 C-81.659375 210.3625 -82.38125 209.5375 -83.125 208.6875 C-87.19799188 203.06958017 -87.22063852 198.15233052 -87.125 191.4375 C-87.12435547 190.56222656 -87.12371094 189.68695313 -87.12304688 188.78515625 C-87.07799693 182.32799693 -87.07799693 182.32799693 -85.9375 181.1875 C-84.52179877 181.10098389 -83.101905 181.08045096 -81.68359375 181.08984375 C-80.40258789 181.09467773 -80.40258789 181.09467773 -79.09570312 181.09960938 C-78.19787109 181.10798828 -77.30003906 181.11636719 -76.375 181.125 C-75.47330078 181.12951172 -74.57160156 181.13402344 -73.64257812 181.13867188 C-71.40748686 181.15049775 -69.17252563 181.1669778 -66.9375 181.1875 C-66.94118717 180.60827065 -66.94487434 180.02904131 -66.94867325 179.43225956 C-67.03718355 165.30908097 -67.10328679 151.1859442 -67.14474869 137.06254673 C-67.16533465 130.23243279 -67.19337867 123.40250451 -67.23925781 116.57250977 C-67.28353121 109.97839219 -67.30665339 103.38441645 -67.31700897 96.79014397 C-67.32438673 94.27720038 -67.33879373 91.76426707 -67.36042023 89.25140572 C-67.38955306 85.72539805 -67.39345171 82.20018137 -67.39160156 78.67407227 C-67.41317322 77.1236322 -67.41317322 77.1236322 -67.43518066 75.54187012 C-67.38974154 67.51300173 -65.83155367 61.21310157 -60.1875 55.3125 C-53.88672571 51.19276297 -48.1910121 49.72981537 -40.71875 49.89453125 C-39.97540405 49.89877609 -39.23205811 49.90302094 -38.46618652 49.90739441 C-36.12290142 49.92400919 -33.78051923 49.96162546 -31.4375 50 C-29.83595004 50.01506922 -28.23438642 50.02875368 -26.6328125 50.04101562 C-22.73403417 50.07385574 -18.83591944 50.12551437 -14.9375 50.1875 C-14.9375 46.2275 -14.9375 42.2675 -14.9375 38.1875 C-16.06929688 38.21070313 -17.20109375 38.23390625 -18.3671875 38.2578125 C-19.84895175 38.27656901 -21.33072312 38.29476934 -22.8125 38.3125 C-23.55886719 38.32925781 -24.30523437 38.34601562 -25.07421875 38.36328125 C-27.02944461 38.3808959 -28.98492021 38.29070189 -30.9375 38.1875 C-32.9375 36.1875 -32.9375 36.1875 -33.125 33.125 C-32.9375 30.1875 -32.9375 30.1875 -31.9375 29.1875 C-29.07482433 29.11424832 -26.236781 29.09511795 -23.375 29.125 C-22.56869141 29.12951172 -21.76238281 29.13402344 -20.93164062 29.13867188 C-18.93356244 29.15049482 -16.93552217 29.16843086 -14.9375 29.1875 C-14.94910156 28.56101562 -14.96070312 27.93453125 -14.97265625 27.2890625 C-14.98167969 26.47179687 -14.99070312 25.65453125 -15 24.8125 C-15.01160156 24.00039063 -15.02320312 23.18828125 -15.03515625 22.3515625 C-14.9375 20.1875 -14.9375 20.1875 -13.9375 18.1875 C-10.6375 18.1875 -7.3375 18.1875 -3.9375 18.1875 C-3.94910156 16.97191406 -3.96070312 15.75632812 -3.97265625 14.50390625 C-3.98203278 12.91927236 -3.99113313 11.33463682 -4 9.75 C-4.00837891 8.94755859 -4.01675781 8.14511719 -4.02539062 7.31835938 C-4.0340143 5.27454779 -3.9897815 3.23066098 -3.9375 1.1875 C-2.9375 0.1875 -2.9375 0.1875 0 0 Z M50.0625 45.1875 C47.65258182 47.15564623 47.65258182 47.15564623 47.83544922 50.90283203 C47.83576649 52.50036052 47.84710018 54.09791027 47.8671875 55.6953125 C47.8700174 56.53593231 47.87284729 57.37655212 47.87576294 58.24264526 C47.8869757 60.93274046 47.91208197 63.6225051 47.9375 66.3125 C47.9475284 68.13410978 47.95665449 69.95572477 47.96484375 71.77734375 C47.98691858 76.24752358 48.02145566 80.71745571 48.0625 85.1875 C49.7125 85.5175 51.3625 85.8475 53.0625 86.1875 C55.52913039 82.48755442 55.36855136 79.62668703 55.36328125 75.34375 C55.36970894 74.19549744 55.36970894 74.19549744 55.37626648 73.02404785 C55.38200517 71.40682972 55.38251342 69.78958577 55.37817383 68.17236328 C55.37501149 65.69649347 55.39848531 63.22181603 55.42382812 60.74609375 C55.42610092 59.17448068 55.42680471 57.60286438 55.42578125 56.03125 C55.434991 55.29056274 55.44420074 54.54987549 55.45368958 53.78674316 C55.42673849 49.74095313 55.42673849 49.74095313 53.66479492 46.19726562 C52.09615009 45.00978049 52.09615009 45.00978049 50.0625 45.1875 Z M23.0625 45.1875 C19.34814908 48.41179476 17.49496581 52.00181674 15.57421875 56.4375 C15.11303398 57.48019043 15.11303398 57.48019043 14.64253235 58.54394531 C13.99843162 60.00770137 13.35912476 61.47357524 12.72436523 62.94140625 C11.75029377 65.18682281 10.75417149 67.4215233 9.75585938 69.65625 C9.13145901 71.08274165 8.50836645 72.50980662 7.88671875 73.9375 C7.58787277 74.60426758 7.28902679 75.27103516 6.98112488 75.95800781 C5.81540114 78.69280031 4.99177008 80.65112697 5.38598633 83.640625 C5.7208606 84.40632813 5.7208606 84.40632813 6.0625 85.1875 C7.3825 85.5175 8.7025 85.8475 10.0625 86.1875 C13.0165719 81.92172431 13.0165719 81.92172431 15.0625 77.1875 C23.4775 76.6925 23.4775 76.6925 32.0625 76.1875 C32.7225 78.1675 33.3825 80.1475 34.0625 82.1875 C35.57803153 84.48916675 35.57803153 84.48916675 37.0625 86.1875 C39.0425 85.6925 39.0425 85.6925 41.0625 85.1875 C42.53210607 80.64183366 40.89046067 77.61110151 39.01953125 73.4296875 C38.69466232 72.68542511 38.3697934 71.94116272 38.03507996 71.17434692 C37.34545876 69.60344179 36.64993835 68.03511508 35.94897461 66.46923828 C34.87914683 64.0717929 33.83605013 61.66392992 32.79492188 59.25390625 C32.12137536 57.72846642 31.44629575 56.2037024 30.76953125 54.6796875 C30.45893265 53.95884979 30.14833405 53.23801208 29.82832336 52.49533081 C28.49406623 49.55766533 27.56861389 47.52047987 24.83081055 45.71923828 C24.24726807 45.54376465 23.66372559 45.36829102 23.0625 45.1875 Z M-53.9375 62.1875 C-58.34349972 68.11932645 -58.49331997 73.02582215 -58.39160156 80.26342773 C-58.3920837 81.37443627 -58.39256584 82.48544481 -58.39306259 83.63012028 C-58.39008746 87.21077563 -58.35967492 90.79058825 -58.328125 94.37109375 C-58.32224063 96.58792724 -58.31816191 98.80476628 -58.31591797 101.02160645 C-58.29498387 109.22282263 -58.23913876 117.42391967 -58.1875 125.625 C-58.105 143.960625 -58.0225 162.29625 -57.9375 181.1875 C2.1225 181.1875 62.1825 181.1875 124.0625 181.1875 C124.145 162.851875 124.2275 144.51625 124.3125 125.625 C124.34891602 119.84154053 124.38533203 114.05808105 124.42285156 108.09936523 C124.43623164 102.9022951 124.43623164 102.9022951 124.4442749 97.70521545 C124.45040584 95.3954917 124.46445064 93.08578053 124.48480225 90.77613831 C124.51413088 87.27167617 124.51812242 83.76799443 124.51660156 80.26342773 C124.53819021 78.72732298 124.53819021 78.72732298 124.560215 77.16018581 C124.52430612 70.96863531 123.78864612 67.20403507 120.0625 62.1875 C115.12495891 59.26770407 110.6844 58.76490067 105.0625 58.9375 C104.33426025 58.94845703 103.60602051 58.95941406 102.85571289 58.97070312 C95.5764882 59.11551633 88.31777981 59.59609437 81.0625 60.1875 C81.0625 64.1475 81.0625 68.1075 81.0625 72.1875 C82.12210938 72.24808594 83.18171875 72.30867188 84.2734375 72.37109375 C85.66147221 72.45550127 87.04949232 72.54014917 88.4375 72.625 C89.13617188 72.66431641 89.83484375 72.70363281 90.5546875 72.74414062 C95.8359375 73.07421875 95.8359375 73.07421875 98.0625 74.1875 C98.0625 76.1675 98.0625 78.1475 98.0625 80.1875 C89.6475 80.6825 89.6475 80.6825 81.0625 81.1875 C81.0625 85.4775 81.0625 89.7675 81.0625 94.1875 C82.20589844 94.24808594 83.34929687 94.30867188 84.52734375 94.37109375 C86.01824305 94.45548428 87.50912775 94.54013302 89 94.625 C89.75474609 94.66431641 90.50949219 94.70363281 91.28710938 94.74414062 C96.94921875 95.07421875 96.94921875 95.07421875 98.0625 96.1875 C98.1875 98.6875 98.1875 98.6875 98.0625 101.1875 C96.00327598 103.24672402 91.84541876 102.60177579 89 102.75 C87.86208008 102.81477539 87.86208008 102.81477539 86.70117188 102.88085938 C84.82184562 102.98723633 82.94219756 103.08789934 81.0625 103.1875 C81.00191406 103.82558594 80.94132813 104.46367188 80.87890625 105.12109375 C80.79511719 105.94738281 80.71132812 106.77367187 80.625 107.625 C80.50318359 108.86056641 80.50318359 108.86056641 80.37890625 110.12109375 C80.0625 112.1875 80.0625 112.1875 79.0625 113.1875 C77.54780552 113.41942865 76.02495438 113.59965238 74.5 113.75 C73.67371094 113.83378906 72.84742188 113.91757813 71.99609375 114.00390625 C71.35800781 114.06449219 70.71992188 114.12507813 70.0625 114.1875 C70.00191406 115.33089844 69.94132812 116.47429687 69.87890625 117.65234375 C69.79451572 119.14324305 69.70986698 120.63412775 69.625 122.125 C69.58568359 122.87974609 69.54636719 123.63449219 69.50585938 124.41210938 C69.17578125 130.07421875 69.17578125 130.07421875 68.0625 131.1875 C65.5625 131.3125 65.5625 131.3125 63.0625 131.1875 C61.00327598 129.12827598 61.64822421 124.97041876 61.5 122.125 C61.45681641 121.36638672 61.41363281 120.60777344 61.36914062 119.82617188 C61.26276367 117.94684562 61.16210066 116.06719756 61.0625 114.1875 C56.7725 114.1875 52.4825 114.1875 48.0625 114.1875 C47.7325 119.7975 47.4025 125.4075 47.0625 131.1875 C45.0825 131.1875 43.1025 131.1875 41.0625 131.1875 C39.54143366 128.14536733 39.68820662 124.90702428 39.5 121.5625 C39.45681641 120.85609375 39.41363281 120.1496875 39.36914062 119.421875 C39.26305249 117.67731463 39.16227111 115.93243303 39.0625 114.1875 C35.1025 114.1875 31.1425 114.1875 27.0625 114.1875 C27.00191406 115.24710938 26.94132812 116.30671875 26.87890625 117.3984375 C26.79449873 118.78647221 26.70985083 120.17449232 26.625 121.5625 C26.58568359 122.26117188 26.54636719 122.95984375 26.50585938 123.6796875 C26.17578125 128.9609375 26.17578125 128.9609375 25.0625 131.1875 C23.0825 131.1875 21.1025 131.1875 19.0625 131.1875 C18.7325 125.5775 18.4025 119.9675 18.0625 114.1875 C13.7725 114.1875 9.4825 114.1875 5.0625 114.1875 C5.00191406 115.33089844 4.94132812 116.47429687 4.87890625 117.65234375 C4.79451572 119.14324305 4.70986698 120.63412775 4.625 122.125 C4.58568359 122.87974609 4.54636719 123.63449219 4.50585938 124.41210938 C4.17578125 130.07421875 4.17578125 130.07421875 3.0625 131.1875 C0.5625 131.3125 0.5625 131.3125 -1.9375 131.1875 C-3.99672402 129.12827598 -3.35177579 124.97041876 -3.5 122.125 C-3.54318359 121.36638672 -3.58636719 120.60777344 -3.63085938 119.82617188 C-3.73723633 117.94684562 -3.83789934 116.06719756 -3.9375 114.1875 C-4.89462891 114.09662109 -4.89462891 114.09662109 -5.87109375 114.00390625 C-6.69738281 113.92011719 -7.52367187 113.83632812 -8.375 113.75 C-9.19871094 113.66878906 -10.02242187 113.58757812 -10.87109375 113.50390625 C-12.9375 113.1875 -12.9375 113.1875 -13.9375 112.1875 C-14.16942865 110.67280552 -14.34965238 109.14995438 -14.5 107.625 C-14.58378906 106.79871094 -14.66757813 105.97242188 -14.75390625 105.12109375 C-14.81449219 104.48300781 -14.87507813 103.84492187 -14.9375 103.1875 C-16.08089844 103.12691406 -17.22429687 103.06632812 -18.40234375 103.00390625 C-19.89324305 102.91951572 -21.38412775 102.83486698 -22.875 102.75 C-24.00711914 102.69102539 -24.00711914 102.69102539 -25.16210938 102.63085938 C-30.82421875 102.30078125 -30.82421875 102.30078125 -31.9375 101.1875 C-32.0625 98.6875 -32.0625 98.6875 -31.9375 96.1875 C-29.87827598 94.12827598 -25.72041876 94.77322421 -22.875 94.625 C-22.11638672 94.58181641 -21.35777344 94.53863281 -20.57617188 94.49414062 C-18.69684562 94.38776367 -16.81719756 94.28710066 -14.9375 94.1875 C-14.9375 89.8975 -14.9375 85.6075 -14.9375 81.1875 C-20.5475 80.8575 -26.1575 80.5275 -31.9375 80.1875 C-31.9375 78.2075 -31.9375 76.2275 -31.9375 74.1875 C-28.89536733 72.66643366 -25.65702428 72.81320662 -22.3125 72.625 C-21.25289062 72.56022461 -21.25289062 72.56022461 -20.171875 72.49414062 C-18.42731463 72.38805249 -16.68243303 72.28727111 -14.9375 72.1875 C-14.9375 68.2275 -14.9375 64.2675 -14.9375 60.1875 C-22.93083001 59.53593307 -30.91771031 59.05816505 -38.9375 58.9375 C-39.63029053 58.91623047 -40.32308105 58.89496094 -41.03686523 58.87304688 C-46.01168799 58.83946967 -49.65044124 59.65236429 -53.9375 62.1875 Z M-78.9375 190.1875 C-77.96370161 198.95168551 -77.20757321 202.47081294 -70.875 208 C-66.33576799 211.38027916 -62.61610443 211.3342284 -57.17619324 211.32794189 C-55.97813402 211.33239858 -55.97813402 211.33239858 -54.75587159 211.3369453 C-52.07055426 211.34564013 -49.38528148 211.3471412 -46.69995117 211.34863281 C-44.77823287 211.35326042 -42.8565155 211.358285 -40.93479919 211.36367798 C-35.70746831 211.37680926 -30.48015027 211.38324833 -25.25280547 211.38768864 C-21.9881439 211.39061811 -18.72348586 211.39472268 -15.45882607 211.39919281 C-5.24783252 211.4128695 4.96315299 211.42253538 15.17415506 211.4263947 C26.96757121 211.43087639 38.76087152 211.44842875 50.55425245 211.4773953 C59.666011 211.49899971 68.77773693 211.50909832 77.88952082 211.51043582 C83.33353067 211.51148471 88.77743165 211.51741049 94.22141457 211.53525543 C99.34235141 211.55171468 104.46309729 211.55390202 109.58405113 211.54511642 C111.463393 211.54434491 113.34274505 211.54870383 115.22206116 211.55857468 C117.78834965 211.57126303 120.35395863 211.56543444 122.92024231 211.55499268 C123.66334477 211.56304908 124.40644723 211.57110548 125.17206794 211.57940602 C130.68709649 211.52695078 134.66685474 210.20946555 138.890625 206.64453125 C143.29056192 201.55559322 145.0625 197.04337219 145.0625 190.1875 C119.3225 190.1875 93.5825 190.1875 67.0625 190.1875 C64.5875 196.6225 64.5875 196.6225 62.0625 203.1875 C61.0625 204.1875 61.0625 204.1875 58.81626892 204.30775452 C57.82365555 204.30553391 56.83104218 204.30331329 55.80834961 204.30102539 C54.68726303 204.30094986 53.56617645 204.30087433 52.41111755 204.30079651 C50.58146202 204.29305458 50.58146202 204.29305458 48.71484375 204.28515625 C47.47328018 204.2837413 46.23171661 204.28232635 44.95252991 204.28086853 C41.64644509 204.27620591 38.34042854 204.26721497 35.03436279 204.25616455 C31.6628885 204.24594827 28.29140717 204.24137045 24.91992188 204.23632812 C18.30076225 204.22527395 11.68163507 204.20851736 5.0625 204.1875 C4.43629084 202.79220871 3.81159369 201.39623879 3.1875 200 C2.83945313 199.22269531 2.49140625 198.44539062 2.1328125 197.64453125 C1.05926801 195.18008058 0.06084448 192.68336121 -0.9375 190.1875 C-26.6775 190.1875 -52.4175 190.1875 -78.9375 190.1875 Z " fill="#0159DD" transform="translate(94.9375,17.8125)"/>
<path d="M0 0 C5 6.36363636 5 6.36363636 5 11 C2.03 11 -0.94 11 -4 11 C-3.39301257 6.87248551 -1.96189209 3.6678852 0 0 Z " fill="#0158DD" transform="translate(118,76)"/>
</svg>
