<?xml version="1.0" encoding="UTF-8"?>
<svg version="1.1" xmlns="http://www.w3.org/2000/svg" width="256" height="256">
<path d="M0 0 C0.81559387 0.00565979 1.63118774 0.01131958 2.47149658 0.01715088 C5.07014272 0.03949773 7.66739742 0.08968878 10.265625 0.140625 C12.02992797 0.16069229 13.7942526 0.17894266 15.55859375 0.1953125 C19.87813828 0.2393567 24.19664593 0.30837078 28.515625 0.390625 C28.7024585 1.01130859 28.88929199 1.63199219 29.08178711 2.27148438 C29.33710205 3.08423828 29.59241699 3.89699219 29.85546875 4.734375 C30.10417725 5.54068359 30.35288574 6.34699219 30.60913086 7.17773438 C32.16325187 10.97158109 34.97598106 12.62080303 38.515625 14.390625 C43.49629473 14.93706538 47.4114557 14.93267175 51.953125 12.703125 C56.0973751 8.96319198 57.53255238 5.79301488 58.515625 0.390625 C63.71169486 0.29166674 68.90721498 0.21911507 74.10400391 0.17089844 C75.87135372 0.1507965 77.63863713 0.12351028 79.40576172 0.08886719 C81.94775785 0.04028491 84.48887396 0.01764274 87.03125 0 C88.21427704 -0.03096771 88.21427704 -0.03096771 89.42120361 -0.06256104 C92.86136977 -0.06396469 95.10032881 0.12260844 98.02148438 2.0078125 C99.99158883 5.14967842 99.97344469 7.21054189 99.90625 10.90625 C99.89335937 12.15664063 99.88046875 13.40703125 99.8671875 14.6953125 C99.83367187 15.99726562 99.80015625 17.29921875 99.765625 18.640625 C99.74757813 19.95804688 99.72953125 21.27546875 99.7109375 22.6328125 C99.66378771 25.88614808 99.59798544 29.13802125 99.515625 32.390625 C98.3510376 32.40520752 97.1864502 32.41979004 95.98657227 32.43481445 C91.63080437 32.49315812 87.27553409 32.57038648 82.92016602 32.65307617 C81.04166796 32.68615684 79.16307454 32.71424027 77.28442383 32.73706055 C74.57071611 32.77091886 71.85786924 32.82324715 69.14453125 32.87890625 C67.90178185 32.88849113 67.90178185 32.88849113 66.63392639 32.89826965 C59.91776005 33.06441452 53.15723703 33.95221389 48.078125 38.640625 C44.52339408 44.89695142 44.22067913 50.82579976 44.2409668 57.85498047 C44.23585587 58.77788879 44.23074493 59.70079712 44.22547913 60.65167236 C44.21163707 63.68711932 44.21253592 66.72233783 44.21484375 69.7578125 C44.21095375 71.87859175 44.20661845 73.99937023 44.20185852 76.12014771 C44.19440779 80.56010466 44.1946792 84.99998207 44.19995117 89.43994141 C44.2057429 95.11461804 44.18881619 100.78896797 44.1656065 106.46359062 C44.15083617 110.84235521 44.15000198 115.22104172 44.15311623 119.59982681 C44.15260463 121.69129203 44.14739743 123.7827618 44.13730431 125.87420273 C44.12489386 128.80550791 44.13175935 131.73618448 44.14331055 134.66748047 C44.13566681 135.52179657 44.12802307 136.37611267 44.12014771 137.25631714 C44.17857832 144.00389919 45.05486399 150.72480057 49.765625 155.828125 C55.9665054 159.3513525 61.9757897 159.70865817 68.94921875 159.8046875 C69.82715591 159.82405365 70.70509308 159.8434198 71.6096344 159.8633728 C74.3907017 159.92275238 77.17181133 159.96938617 79.953125 160.015625 C81.84832451 160.05384316 83.74350736 160.09289708 85.63867188 160.1328125 C90.26418629 160.22841929 94.88978192 160.31260255 99.515625 160.390625 C99.63167598 164.97374584 99.70282862 169.55648949 99.765625 174.140625 C99.79914063 175.44257813 99.83265625 176.74453125 99.8671875 178.0859375 C99.88652344 179.96152344 99.88652344 179.96152344 99.90625 181.875 C99.9376709 183.60314941 99.9376709 183.60314941 99.96972656 185.36621094 C99.515625 188.390625 99.515625 188.390625 98.1083374 190.54730225 C94.12349452 193.38037835 90.3550261 192.94883954 85.578125 192.90820312 C84.56959473 192.9152124 83.56106445 192.92222168 82.52197266 192.92944336 C79.18624386 192.94705718 75.85136252 192.9353881 72.515625 192.921875 C70.19921709 192.92456893 67.88281028 192.92845051 65.56640625 192.93347168 C60.71082802 192.93937134 55.85554404 192.93078838 51 192.91210938 C44.77197854 192.88931996 38.54464655 192.90244048 32.31665039 192.92639923 C27.53315015 192.94084432 22.74981373 192.93625705 17.96630859 192.92588806 C15.66975829 192.92321723 13.37319317 192.926503 11.07666016 192.93580627 C7.8684136 192.94595027 4.66128794 192.93049983 1.453125 192.90820312 C0.50131348 192.91630005 -0.45049805 192.92439697 -1.43115234 192.93273926 C-2.30594238 192.92145996 -3.18073242 192.91018066 -4.08203125 192.89855957 C-4.84008057 192.89705147 -5.59812988 192.89554337 -6.37915039 192.89398956 C-9.49690455 192.14852661 -10.61451883 190.98072675 -12.484375 188.390625 C-12.87755053 185.77035268 -13.02560853 183.56927497 -12.99230957 180.95117188 C-12.99854953 180.1992028 -13.0047895 179.44723373 -13.01121855 178.67247772 C-13.02718172 176.15112513 -13.01453189 173.63073487 -13.00195312 171.109375 C-13.00737279 169.30248449 -13.01449457 167.4955984 -13.02319336 165.6887207 C-13.04144822 160.7796447 -13.03435026 155.87090448 -13.02167702 150.96182251 C-13.01156056 145.82805466 -13.02093893 140.69431584 -13.02722168 135.56054688 C-13.03450203 126.93874949 -13.02490019 118.31708909 -13.00585938 109.6953125 C-12.98408992 99.72273531 -12.99114101 89.75048521 -13.013165 79.77791595 C-13.03130793 71.22070259 -13.03388273 62.66358777 -13.02341032 54.10636139 C-13.01716931 48.9932977 -13.01635646 43.88038783 -13.02955627 38.76733398 C-13.04109805 33.96064925 -13.03311969 29.15438684 -13.00997925 24.3477478 C-13.0046832 22.58206891 -13.00622121 20.81635456 -13.01502991 19.0506897 C-13.02593401 16.64333687 -13.01228546 14.23734389 -12.99230957 11.83007812 C-13.00123246 11.12852348 -13.01015534 10.42696884 -13.01934862 9.70415497 C-12.96613237 6.40617146 -12.66796432 4.64037924 -10.69329071 1.95404053 C-7.3324213 -0.42469914 -3.95853819 -0.10362136 0 0 Z " fill="#0159DC" transform="translate(44.484375,31.609375)"/>
<path d="M0 0 C47.52 0 95.04 0 144 0 C144 22.44 144 44.88 144 68 C139.49982877 72.50017123 139.49982877 72.50017123 134.3828125 72.50793457 C133.23876953 72.51921387 132.09472656 72.53049316 130.91601562 72.54211426 C129.66498047 72.53401733 128.41394531 72.52592041 127.125 72.51757812 C125.79100785 72.52299968 124.4570217 72.53012254 123.12304688 72.53881836 C119.50314652 72.55705113 115.88370226 72.54998474 112.26379395 72.53730202 C108.4753293 72.52717395 104.68690368 72.53656715 100.8984375 72.54284668 C94.53638702 72.55012368 88.17452228 72.54053413 81.8125 72.52148438 C74.45739863 72.49971536 67.10274077 72.50676671 59.74765015 72.52879 C53.43244633 72.54694262 47.11737602 72.54950305 40.80215454 72.53903532 C37.03046397 72.53279956 33.25898186 72.53196682 29.48730469 72.54518127 C25.94127647 72.55673735 22.39581997 72.54871944 18.84985352 72.52560425 C16.92790513 72.51779314 15.00590838 72.52967522 13.08398438 72.54211426 C11.36791992 72.52519531 11.36791992 72.52519531 9.6171875 72.50793457 C8.62315918 72.50642647 7.62913086 72.50491837 6.60498047 72.50336456 C4 72 4 72 0 68 C0 45.56 0 23.12 0 0 Z M43.55664062 22.79882812 C42.77482422 23.58708984 41.99300781 24.37535156 41.1875 25.1875 C39.98577148 26.34088867 39.98577148 26.34088867 38.75976562 27.51757812 C38.00759766 28.26845703 37.25542969 29.01933594 36.48046875 29.79296875 C35.78848389 30.4789917 35.09649902 31.16501465 34.38354492 31.87182617 C32.76021522 33.92816455 32.76021522 33.92816455 33.06860352 36.51147461 C34.77434296 41.06890637 38.34849649 44.0034393 41.75 47.375 C42.46671875 48.12394531 43.1834375 48.87289062 43.921875 49.64453125 C44.97375 50.69833984 44.97375 50.69833984 46.046875 51.7734375 C46.68463867 52.41716309 47.32240234 53.06088867 47.97949219 53.72412109 C49.99345613 55.28889234 49.99345613 55.28889234 52.74707031 54.70166016 C53.49053711 54.4701123 54.23400391 54.23856445 55 54 C54.69029106 48.61506072 51.64569893 46.17532596 47.9375 42.6875 C47.36966797 42.13771484 46.80183594 41.58792969 46.21679688 41.02148438 C44.82009075 39.67172635 43.41121163 38.33458475 42 37 C43.81237259 32.33176757 47.62183736 29.39440992 51.27539062 26.15429688 C52.97754057 24.61242677 52.97754057 24.61242677 55 22 C54.9808111 19.21187023 54.9808111 19.21187023 54 17 C48.57277912 17 47.28944101 19.13579971 43.55664062 22.79882812 Z M76 16 C72.33455575 19.13133666 71.21464809 21.65570282 70.078125 26.3046875 C69.77519531 27.52800781 69.47226563 28.75132812 69.16015625 30.01171875 C68.85980469 31.28660156 68.55945313 32.56148437 68.25 33.875 C67.93417969 35.14214844 67.61835938 36.40929687 67.29296875 37.71484375 C65.94338823 43.270909 64.80716227 48.25495233 65 54 C66.32 54.66 67.64 55.32 69 56 C71.80233986 52.75289913 72.79286882 49.8344835 73.82421875 45.6953125 C74.13037109 44.47199219 74.43652344 43.24867188 74.75195312 41.98828125 C75.06068359 40.71339844 75.36941406 39.43851563 75.6875 38.125 C76.00783203 36.85785156 76.32816406 35.59070313 76.65820312 34.28515625 C78.78889257 26.24467924 78.78889257 26.24467924 79 18 C78.01 17.34 77.02 16.68 76 16 Z M90 17 C88.91560105 19.14482982 88.91560105 19.14482982 89 22 C90.81607433 24.60743634 93.10629147 26.66778816 95.4375 28.8125 C96.06205078 29.40998047 96.68660156 30.00746094 97.33007812 30.62304688 C98.87361502 32.09588743 100.43515877 33.54981471 102 35 C99.90031771 39.61610947 96.45734794 42.53536548 92.72460938 45.84570312 C91.02245943 47.38757323 91.02245943 47.38757323 89 50 C89.0191889 52.78812977 89.0191889 52.78812977 90 55 C96.21903644 54.20860904 99.1185974 50.54420369 103.375 46.25 C104.12394531 45.53328125 104.87289062 44.8165625 105.64453125 44.078125 C106.34707031 43.376875 107.04960937 42.675625 107.7734375 41.953125 C108.41716309 41.31536133 109.06088867 40.67759766 109.72412109 40.02050781 C111.23550486 38.04586883 111.23550486 38.04586883 110.91772461 35.50219727 C109.86966853 32.64464826 108.68184225 31.1656794 106.54296875 29.01171875 C105.84236328 28.30595703 105.14175781 27.60019531 104.41992188 26.87304688 C103.68322266 26.15181641 102.94652344 25.43058594 102.1875 24.6875 C101.46240234 23.94693359 100.73730469 23.20636719 99.99023438 22.44335938 C99.28576172 21.74404297 98.58128906 21.04472656 97.85546875 20.32421875 C97.21246826 19.68572998 96.56946777 19.04724121 95.90698242 18.3894043 C93.85442233 16.60742219 93.85442233 16.60742219 90 17 Z " fill="#0159DD" transform="translate(96,112)"/>
<path d="M0 0 C1.06077255 -0.00671722 2.1215451 -0.01343445 3.21446228 -0.02035522 C6.72008961 -0.03934785 10.2255256 -0.04326016 13.73120117 -0.04541016 C16.17111795 -0.05183742 18.61103395 -0.05856573 21.0509491 -0.06558228 C26.1661457 -0.07755838 31.28127474 -0.08126277 36.39648438 -0.08007812 C42.94350949 -0.07987497 49.49010035 -0.10717221 56.03702259 -0.14162254 C61.07714315 -0.16388623 66.11715914 -0.16791581 71.15732384 -0.16685867 C73.5705992 -0.16921561 75.9838774 -0.17804428 78.39710426 -0.19352341 C81.77676205 -0.21317076 85.1554826 -0.2073493 88.53515625 -0.1953125 C89.52712006 -0.20655151 90.51908386 -0.21779053 91.54110718 -0.22937012 C98.82624198 -0.16360776 104.17378339 1.40933061 109.70385742 6.25537109 C110.24268555 6.90634766 110.78151367 7.55732422 111.33666992 8.22802734 C111.8909668 8.87642578 112.44526367 9.52482422 113.01635742 10.19287109 C116.26440449 14.9069286 116.7036727 18.88718985 116.65698242 24.56005859 C116.65415253 25.24106125 116.65132263 25.9220639 116.64840698 26.623703 C116.63727517 28.78366189 116.61218449 30.94319528 116.58666992 33.10302734 C116.57663103 34.57372445 116.56750677 36.0444281 116.55932617 37.51513672 C116.53735906 41.1070702 116.50287812 44.69875719 116.46166992 48.29052734 C113.82166992 48.29052734 111.18166992 48.29052734 108.46166992 48.29052734 C108.43979614 47.27067749 108.43979614 47.27067749 108.41748047 46.23022461 C108.34230572 43.10396453 108.2458776 39.97869252 108.14916992 36.85302734 C108.12661133 35.78375 108.10405273 34.71447266 108.08081055 33.61279297 C107.82960528 26.14514546 107.48576411 18.56662938 102.21166992 12.85302734 C95.95534351 9.29829643 90.02649516 8.99558148 82.99731445 9.01586914 C82.07440613 9.01075821 81.1514978 9.00564728 80.20062256 9.00038147 C77.1651756 8.98653941 74.12995709 8.98743826 71.09448242 8.98974609 C68.97370317 8.98585609 66.85292469 8.98152079 64.73214722 8.97676086 C60.29219027 8.96931013 55.85231285 8.96958154 51.41235352 8.97485352 C45.73767688 8.98064525 40.06332695 8.96371854 34.3887043 8.94050884 C30.00993971 8.92573852 25.6312532 8.92490432 21.25246811 8.92801857 C19.16100289 8.92750698 17.06953312 8.92229977 14.97809219 8.91220665 C12.04678702 8.8997962 9.11611044 8.90666169 6.18481445 8.91821289 C5.33049835 8.91056915 4.47618225 8.90292542 3.59597778 8.89505005 C-3.15160427 8.95348066 -9.87250565 9.82976633 -14.97583008 14.54052734 C-18.12231559 20.07834185 -18.78893666 25.4634662 -18.79902649 31.75338745 C-18.80285204 32.47172355 -18.80667758 33.19005965 -18.81061906 33.9301635 C-18.8208779 36.31972929 -18.81697057 38.70905158 -18.81298828 41.09863281 C-18.81733872 42.81903301 -18.82252297 44.53943126 -18.82847595 46.25982666 C-18.8418419 50.92104673 -18.84244727 55.58218559 -18.83991265 60.24342108 C-18.83884126 64.13992529 -18.84373066 68.03641319 -18.84851807 71.9329139 C-18.85960506 81.12846548 -18.86005529 90.32397622 -18.85400391 99.51953125 C-18.84796477 108.99384918 -18.86027547 118.46801858 -18.88157398 127.94231117 C-18.89920932 136.08775809 -18.90518826 144.23315782 -18.90193623 152.37862313 C-18.90012623 157.23860027 -18.90273123 162.09847146 -18.91665077 166.95843124 C-18.92925587 171.53035156 -18.92725969 176.10204092 -18.91423988 180.67395782 C-18.91188035 182.3472438 -18.91458638 184.02054616 -18.92286301 185.69381332 C-19.39775022 199.68049695 -19.39775022 199.68049695 -13.28833008 211.72802734 C-7.03200366 215.28275826 -1.10315532 215.58547321 5.92602539 215.56518555 C6.84893372 215.57029648 7.77184204 215.57540741 8.72271729 215.58067322 C11.75816424 215.59451528 14.79338275 215.59361643 17.82885742 215.59130859 C19.94963667 215.5951986 22.07041515 215.5995339 24.19119263 215.60429382 C28.63114958 215.61174455 33.07102699 215.61147314 37.51098633 215.60620117 C43.18566296 215.60040944 48.86001289 215.61733615 54.53463554 215.64054585 C58.91340013 215.65531617 63.29208665 215.65615036 67.67087173 215.65303612 C69.76233695 215.65354771 71.85380672 215.65875492 73.94524765 215.66884804 C76.87655283 215.68125849 79.8072294 215.674393 82.73852539 215.6628418 C83.59284149 215.67048553 84.44715759 215.67812927 85.32736206 215.68600464 C92.07494412 215.62757403 98.79584549 214.75128836 103.89916992 210.04052734 C107.90328217 202.99328979 107.86084234 195.78051625 108.08666992 187.85302734 C108.14467773 186.18336914 108.14467773 186.18336914 108.20385742 184.47998047 C108.29757958 181.75032258 108.38329286 179.02066171 108.46166992 176.29052734 C111.10166992 176.29052734 113.74166992 176.29052734 116.46166992 176.29052734 C116.56132561 180.55885716 116.63350383 184.82655203 116.68139648 189.09570312 C116.70138288 190.54471652 116.72858189 191.9936506 116.76342773 193.44238281 C116.98387497 202.85029261 117.04020735 210.06571524 110.49682617 217.53271484 C109.84584961 218.07154297 109.19487305 218.61037109 108.52416992 219.16552734 C107.87577148 219.71982422 107.22737305 220.27412109 106.55932617 220.84521484 C100.88776087 224.75299727 95.59312802 224.58711189 88.92333984 224.58105469 C87.86256729 224.58777191 86.80179474 224.59448914 85.70887756 224.60140991 C82.20325023 224.62040254 78.69781425 224.62431485 75.19213867 224.62646484 C72.7522219 224.63289211 70.3123059 224.63962042 67.87239075 224.64663696 C62.75719415 224.65861307 57.6420651 224.66231746 52.52685547 224.66113281 C45.97983035 224.66092966 39.43323949 224.6882269 32.88631725 224.72267723 C27.84619669 224.74494092 22.8061807 224.7489705 17.76601601 224.74791336 C15.35274065 224.7502703 12.93946245 224.75909897 10.52623558 224.77457809 C7.14657779 224.79422544 3.76785724 224.78840398 0.38818359 224.77636719 C-1.09976212 224.79322571 -1.09976212 224.79322571 -2.61776733 224.8104248 C-9.90290213 224.74466245 -15.25044355 223.17172408 -20.78051758 218.32568359 C-21.58875977 217.34921875 -21.58875977 217.34921875 -22.41333008 216.35302734 C-22.96762695 215.70462891 -23.52192383 215.05623047 -24.09301758 214.38818359 C-27.38901321 209.60453588 -27.83024979 205.21819764 -27.80575562 199.529953 C-27.81028673 198.75545046 -27.81481784 197.98094791 -27.81948626 197.18297559 C-27.83213218 194.59140525 -27.83050977 192.00004502 -27.82885742 189.40844727 C-27.83484257 187.54878977 -27.84164809 185.68913477 -27.84921265 183.82948303 C-27.86688172 178.77980294 -27.87156843 173.73019064 -27.87284422 168.68048263 C-27.87426592 165.52467058 -27.8785359 162.36887577 -27.88383865 159.21306801 C-27.9023423 148.20070934 -27.91050889 137.18839909 -27.90893555 126.17602539 C-27.90773423 115.91553585 -27.92883391 105.6552567 -27.96042287 95.39482039 C-27.98658711 86.58191858 -27.99730277 77.76908546 -27.99602473 68.95614511 C-27.99551512 63.69427712 -28.0011979 58.43259608 -28.02238083 53.17076683 C-28.04176547 48.22045919 -28.04188605 43.27051678 -28.02734756 38.32019615 C-28.02525862 36.50619472 -28.02996548 34.69217042 -28.04206848 32.87820816 C-28.05755543 30.39572962 -28.04819091 27.91450505 -28.0328064 25.43205261 C-28.04309352 24.71948577 -28.05338065 24.00691892 -28.06397951 23.27275914 C-27.97683578 16.8803242 -25.74156992 11.80476128 -21.57348633 7.04833984 C-20.92250977 6.50951172 -20.2715332 5.97068359 -19.60083008 5.41552734 C-18.95243164 4.86123047 -18.3040332 4.30693359 -17.63598633 3.73583984 C-11.96442103 -0.17194258 -6.66978817 -0.0060572 0 0 Z " fill="#0159DC" transform="translate(43.538330078125,15.70947265625)"/>
<path d="M0 0 C1.14404297 -0.0112793 2.28808594 -0.02255859 3.46679688 -0.03417969 C5.34334961 -0.0220343 5.34334961 -0.0220343 7.2578125 -0.00964355 C8.59180465 -0.01506511 9.9257908 -0.02218797 11.25976562 -0.03088379 C14.87966598 -0.04911656 18.49911024 -0.04205017 22.11901855 -0.02936745 C25.9074832 -0.01923938 29.69590882 -0.02863258 33.484375 -0.03491211 C39.84642548 -0.04218911 46.20829022 -0.03259956 52.5703125 -0.0135498 C59.92541387 0.00821921 67.28007173 0.00116786 74.63516235 -0.02085543 C80.95036617 -0.03900805 87.26543648 -0.04156848 93.58065796 -0.03110075 C97.35234853 -0.02486499 101.12383064 -0.02403225 104.89550781 -0.0372467 C108.44153603 -0.04880278 111.98699253 -0.04078487 115.53295898 -0.01766968 C117.45490737 -0.00985857 119.37690412 -0.02174065 121.29882812 -0.03417969 C123.01489258 -0.01726074 123.01489258 -0.01726074 124.765625 0 C125.75965332 0.0015081 126.75368164 0.0030162 127.77783203 0.00457001 C130.3828125 0.50793457 130.3828125 0.50793457 134.3828125 4.50793457 C134.3828125 13.74793457 134.3828125 22.98793457 134.3828125 32.50793457 C86.8628125 32.50793457 39.3428125 32.50793457 -9.6171875 32.50793457 C-9.6171875 0.01459084 -9.6171875 0.01459084 0 0 Z M1.0078125 11.13293457 C-1.10425256 14.21979889 -1.22913895 15.83622587 -0.6171875 19.50793457 C0.8828125 22.00793457 0.8828125 22.00793457 3.3828125 23.50793457 C7.0545212 24.11988602 8.67094818 23.99499963 11.7578125 21.88293457 C13.86987756 18.79607025 13.99476395 17.17964327 13.3828125 13.50793457 C11.8828125 11.00793457 11.8828125 11.00793457 9.3828125 9.50793457 C5.7111038 8.89598312 4.09467682 9.02086951 1.0078125 11.13293457 Z M25.0078125 11.13293457 C22.89574744 14.21979889 22.77086105 15.83622587 23.3828125 19.50793457 C24.8828125 22.00793457 24.8828125 22.00793457 27.3828125 23.50793457 C31.0545212 24.11988602 32.67094818 23.99499963 35.7578125 21.88293457 C37.86987756 18.79607025 37.99476395 17.17964327 37.3828125 13.50793457 C35.8828125 11.00793457 35.8828125 11.00793457 33.3828125 9.50793457 C29.7111038 8.89598312 28.09467682 9.02086951 25.0078125 11.13293457 Z " fill="#015ADD" transform="translate(105.6171875,71.4920654296875)"/>
</svg>
