<?xml version="1.0" encoding="UTF-8"?>
<svg version="1.1" xmlns="http://www.w3.org/2000/svg" width="256" height="256">
<path d="M0 0 C1.53598817 1.31584655 3.05834006 2.64788511 4.5625 4 C5.17351562 4.51820312 5.78453125 5.03640625 6.4140625 5.5703125 C16.16979757 14.43511286 21.96448063 26.54299176 25.5625 39 C25.80742187 39.8146875 26.05234375 40.629375 26.3046875 41.46875 C30.78218399 59.37873597 27.08121099 78.8257137 18.484375 94.84375 C15.57744283 99.61773616 12.29459214 103.84823485 8.5625 108 C8.04429687 108.61101562 7.52609375 109.22203125 6.9921875 109.8515625 C-1.87261286 119.60729757 -13.98049176 125.40198063 -26.4375 129 C-27.2521875 129.24492187 -28.066875 129.48984375 -28.90625 129.7421875 C-46.81623597 134.21968399 -66.2632137 130.51871099 -82.28125 121.921875 C-87.05523616 119.01494283 -91.28573485 115.73209214 -95.4375 112 C-96.04851562 111.48179687 -96.65953125 110.96359375 -97.2890625 110.4296875 C-107.04479757 101.56488714 -112.83948063 89.45700824 -116.4375 77 C-116.68242188 76.1853125 -116.92734375 75.370625 -117.1796875 74.53125 C-121.65463332 56.63146671 -117.9730661 37.14167445 -109.34375 21.14453125 C-97.90101059 2.26870088 -80.90645739 -9.08092947 -59.6875 -14.3125 C-38.52666406 -17.8797113 -17.02230452 -13.2281764 0 0 Z M-88.4375 11 C-100.76869355 22.93157154 -108.39148863 37.30752096 -108.72973633 54.60253906 C-108.79909124 64.51945617 -108.43302044 72.79065289 -104.4375 82 C-104.07527344 82.87527344 -103.71304688 83.75054687 -103.33984375 84.65234375 C-96.30435408 100.13042103 -82.95591767 111.83848774 -67.375 118.25 C-50.35081734 123.96474679 -32.32366431 122.80499822 -16.19677734 114.93896484 C-0.72860536 106.68326273 10.08281937 92.87655607 15.80078125 76.54296875 C19.81851008 63.12993559 19.12123161 46.81242073 13.5625 34 C13.01916016 32.68708984 13.01916016 32.68708984 12.46484375 31.34765625 C5.42935408 15.86957897 -7.91908233 4.16151226 -23.5 -2.25 C-46.49325021 -9.96846763 -70.4021753 -5.04003734 -88.4375 11 Z " fill="#0159DD" transform="translate(173.4375,70)"/>
<path d="M0 0 C5.31590596 5.07989322 8.84280111 9.47034298 9.10546875 17.0390625 C9.12297905 20.02982129 9.08706856 23.01064602 9 26 C9.75925781 26.11988281 10.51851562 26.23976563 11.30078125 26.36328125 C15.20115732 27.28334102 17.19163139 29.19163139 20 32 C22.28172788 37.10168979 22.2918119 41.86482529 22.265625 47.34375 C22.26753845 48.23106812 22.2694519 49.11838623 22.27142334 50.03259277 C22.27277955 51.90177699 22.26912265 53.7709708 22.26074219 55.64013672 C22.25003465 58.49077643 22.26065665 61.34078599 22.2734375 64.19140625 C22.27211581 66.01302222 22.26955321 67.83463779 22.265625 69.65625 C22.26967346 70.50328491 22.27372192 71.35031982 22.27789307 72.22302246 C22.22951488 78.36998867 21.73571335 83.04732248 17.5 87.8125 C14.09612046 90.7908946 12.51401109 91.12873007 8.09472656 91.17700195 C7.07316467 91.18983719 6.05160278 91.20267242 4.99908447 91.21589661 C3.33664703 91.22697701 3.33664703 91.22697701 1.640625 91.23828125 C0.5034906 91.246353 -0.6336438 91.25442474 -1.80523682 91.26274109 C-4.21617097 91.27659098 -6.62712481 91.28730907 -9.03808594 91.29516602 C-12.7210828 91.31236496 -16.40317903 91.3562429 -20.0859375 91.40039062 C-22.42707672 91.41051853 -24.76822359 91.41903433 -27.109375 91.42578125 C-28.75966705 91.45204338 -28.75966705 91.45204338 -30.44329834 91.47883606 C-36.38086408 91.46203926 -40.55318012 91.38597146 -45 87 C-48.22873799 81.50543612 -48.4427144 76.64983659 -48.3984375 70.375 C-48.40130768 69.46927246 -48.40417786 68.56354492 -48.40713501 67.63037109 C-48.4091674 65.72427746 -48.40369556 63.81816257 -48.39111328 61.91210938 C-48.37504779 59.00863634 -48.39099007 56.10655517 -48.41015625 53.203125 C-48.40817367 51.34374695 -48.40432969 49.48436977 -48.3984375 47.625 C-48.40451019 46.76438965 -48.41058289 45.9037793 -48.4168396 45.01708984 C-48.34133289 38.48764936 -47.42028909 33.42028909 -42.625 28.625 C-39.95909268 26.97467642 -38.04841241 26.51996332 -35 26 C-35.03480469 25.2265625 -35.06960937 24.453125 -35.10546875 23.65625 C-35.33120908 14.97062214 -34.80566243 8.79241407 -28.875 2.1875 C-20.88233465 -5.13492088 -9.05518346 -6.23801528 0 0 Z M-22 9 C-26.02899151 14.74316054 -26.02899151 14.74316054 -25 26 C-17.08 26 -9.16 26 -1 26 C0.02899151 14.74316054 0.02899151 14.74316054 -4 9 C-7.56336997 6.04749345 -10.58385262 5.52034578 -15.07421875 5.71484375 C-17.99255546 6.14697069 -19.73883809 7.12646585 -22 9 Z M-38 38 C-38.31141507 39.88265776 -38.31141507 39.88265776 -38.2746582 42.05078125 C-38.28419022 42.88504639 -38.29372223 43.71931152 -38.30354309 44.57885742 C-38.30263168 45.48095947 -38.30172028 46.38306152 -38.30078125 47.3125 C-38.30506638 48.23716064 -38.3093515 49.16182129 -38.31376648 50.11450195 C-38.31951503 52.07144348 -38.32000619 54.02840639 -38.31567383 55.98535156 C-38.31251263 58.98799871 -38.33597062 61.9896622 -38.36132812 64.9921875 C-38.36360085 66.89062375 -38.36430474 68.78906266 -38.36328125 70.6875 C-38.372491 71.58960205 -38.38170074 72.4917041 -38.39118958 73.42114258 C-38.38496078 74.25540771 -38.37873199 75.08967285 -38.37231445 75.94921875 C-38.37294388 76.68487061 -38.3735733 77.42052246 -38.3742218 78.1784668 C-38.13694649 80.41671351 -38.13694649 80.41671351 -35 82 C-32.94304637 82.30173469 -32.94304637 82.30173469 -30.66796875 82.25878906 C-29.79696533 82.26509338 -28.92596191 82.27139771 -28.02856445 82.27789307 C-27.09101318 82.2738446 -26.15346191 82.26979614 -25.1875 82.265625 C-24.22223389 82.26753845 -23.25696777 82.2694519 -22.26245117 82.27142334 C-20.22151428 82.2727844 -18.1805687 82.26909345 -16.13964844 82.26074219 C-13.01217234 82.25004165 -9.88527069 82.26064022 -6.7578125 82.2734375 C-4.7760404 82.27211589 -2.79426865 82.26955347 -0.8125 82.265625 C0.12505127 82.26967346 1.06260254 82.27372192 2.02856445 82.27789307 C2.89956787 82.27158875 3.77057129 82.26528442 4.66796875 82.25878906 C5.81688599 82.25640228 5.81688599 82.25640228 6.98901367 82.25396729 C9.31510094 82.11209975 9.31510094 82.11209975 12 80 C12.44925611 78.12445567 12.44925611 78.12445567 12.37231445 75.94921875 C12.37854324 75.11495361 12.38477203 74.28068848 12.39118958 73.42114258 C12.38197983 72.51904053 12.37277008 71.61693848 12.36328125 70.6875 C12.36377975 69.76283936 12.36427826 68.83817871 12.36479187 67.88549805 C12.36244907 65.92852634 12.35270846 63.97155176 12.33618164 62.01464844 C12.31259503 59.0120969 12.3156183 56.01043306 12.32226562 53.0078125 C12.31668892 51.10936968 12.30957909 49.21093062 12.30078125 47.3125 C12.30169266 46.41039795 12.30260406 45.5082959 12.30354309 44.57885742 C12.28924507 43.32745972 12.28924507 43.32745972 12.2746582 42.05078125 C12.27005081 41.31512939 12.26544342 40.57947754 12.26069641 39.8215332 C12.15007064 37.75020762 12.15007064 37.75020762 10 36 C7.95412325 35.69468098 7.95412325 35.69468098 5.58203125 35.74121094 C4.66768311 35.73490662 3.75333496 35.72860229 2.8112793 35.72210693 C1.82168213 35.7261554 0.83208496 35.73020386 -0.1875 35.734375 C-1.20094482 35.73246155 -2.21438965 35.7305481 -3.25854492 35.72857666 C-5.40381112 35.72721409 -7.54908553 35.73091553 -9.69433594 35.73925781 C-12.98651572 35.74995618 -16.27814978 35.73936481 -19.5703125 35.7265625 C-21.65104288 35.72788408 -23.73177291 35.73044645 -25.8125 35.734375 C-26.80209717 35.73032654 -27.79169434 35.72627808 -28.8112793 35.72210693 C-30.18280151 35.73156342 -30.18280151 35.73156342 -31.58203125 35.74121094 C-32.79209839 35.74359772 -32.79209839 35.74359772 -34.02661133 35.74603271 C-36.23306436 35.8256875 -36.23306436 35.8256875 -38 38 Z " fill="#0159DD" transform="translate(141,80)"/>
<path d="M0 0 C4.34393715 0.49600244 5.39706182 2.05891885 8.25 5.30859375 C14.62662859 12.21063324 21.96853903 16.90997719 30.19335938 21.44189453 C35.1555734 24.18224056 35.1555734 24.18224056 36.25 26.37109375 C36.48551963 30.72321099 36.47843279 35.07927719 36.49023438 39.43701172 C36.49990135 41.59902995 36.53090494 43.76008151 36.5625 45.921875 C36.5690343 47.30598396 36.57428309 48.6900997 36.578125 50.07421875 C36.5874707 51.32879883 36.59681641 52.58337891 36.60644531 53.87597656 C36.21146718 57.74892651 35.36219257 60.11156676 33.25 63.37109375 C29.84661323 66.08040706 25.80056508 65.62764686 21.640625 65.56640625 C20.91381531 65.56357635 20.18700562 65.56074646 19.43817139 65.55783081 C17.12527749 65.54666898 14.81277612 65.52157226 12.5 65.49609375 C10.92839102 65.48605876 9.35677596 65.47693381 7.78515625 65.46875 C3.93995378 65.44674279 0.09504336 65.4122409 -3.75 65.37109375 C-3.86730469 65.96664062 -3.98460937 66.5621875 -4.10546875 67.17578125 C-5.26445909 71.12337259 -8.11056792 74.32072168 -11.5546875 76.52734375 C-16.56100438 78.45147978 -22.85985585 78.27458464 -27.94921875 76.68359375 C-33.15319719 73.97436419 -35.93441355 69.81785309 -37.75 64.37109375 C-38.29011684 57.99771508 -37.37133378 53.6965846 -33.75 48.37109375 C-29.81336713 44.3280654 -25.43220373 42.43531823 -19.734375 42.3359375 C-13.52893405 42.82147773 -9.60826698 45.36612148 -5.375 49.93359375 C-3.75 52.37109375 -3.75 52.37109375 -3.75 55.37109375 C6.15 55.37109375 16.05 55.37109375 26.25 55.37109375 C26.25 47.12109375 26.25 38.87109375 26.25 30.37109375 C23.775 29.38109375 23.775 29.38109375 21.25 28.37109375 C13.3816184 24.00782838 6.6563521 18.66243055 0.25 12.37109375 C-0.62591797 11.51451172 -0.62591797 11.51451172 -1.51953125 10.640625 C-2.9375 9.12109375 -2.9375 9.12109375 -4.75 6.37109375 C-4.56437168 2.19445652 -4.23401993 0.57135212 0 0 Z M-27.75 57.37109375 C-28.58333333 60.37109375 -28.58333333 60.37109375 -27.75 63.37109375 C-25.83333333 66.45442708 -25.83333333 66.45442708 -22.75 68.37109375 C-19.17813335 68.37109375 -16.86888401 68.11701642 -13.875 66.12109375 C-12.36536655 63.77277505 -11.88336945 62.17185227 -11.75 59.37109375 C-13.37155629 55.88474774 -14.51453292 54.52807181 -17.75 52.37109375 C-22.74341956 51.4512533 -24.78910238 53.4796283 -27.75 57.37109375 Z " fill="#0159DD" transform="translate(62.75,178.62890625)"/>
<path d="M0 0 C3.77702297 2.63513231 6.60374735 5.7074947 8.6875 9.875 C9.39077889 16.15999866 9.88491499 22.14012119 6.125 27.5 C2.00265443 32.07609321 -2.16445151 33.63632795 -8.25 34.3125 C-14.15253626 34.06035282 -18.73265541 31.53586226 -22.75 27.3125 C-24.3125 24.875 -24.3125 24.875 -25.3125 21.875 C-29.2725 21.545 -33.2325 21.215 -37.3125 20.875 C-36.82330078 22.02162109 -36.82330078 22.02162109 -36.32421875 23.19140625 C-32.31276422 33.02479479 -29.17198046 43.14524803 -29.3125 53.875 C-28.23242676 53.86452637 -27.15235352 53.85405273 -26.03955078 53.84326172 C-22.04023541 53.80711806 -18.04093454 53.78412016 -14.04150391 53.76513672 C-12.30905735 53.75506624 -10.57662784 53.74140911 -8.84423828 53.72412109 C-6.35705361 53.69991838 -3.87009325 53.68852761 -1.3828125 53.6796875 C-0.21711227 53.66420364 -0.21711227 53.66420364 0.97213745 53.64840698 C2.87875493 53.64800729 4.78481036 53.7526786 6.6875 53.875 C8.6875 55.875 8.6875 55.875 8.9375 58.875 C8.6875 61.875 8.6875 61.875 6.6875 63.875 C4.87269592 64.12896729 4.87269592 64.12896729 2.65258789 64.13378906 C1.82155045 64.14009338 0.990513 64.14639771 0.1342926 64.15289307 C-0.76467239 64.1488446 -1.66363739 64.14479614 -2.58984375 64.140625 C-3.51213272 64.14253845 -4.43442169 64.1444519 -5.38465881 64.14642334 C-7.33741529 64.14778579 -9.2901808 64.14408517 -11.24291992 64.13574219 C-14.23441928 64.12505566 -17.22531643 64.13562919 -20.21679688 64.1484375 C-22.11198049 64.14711568 -24.00716374 64.14455281 -25.90234375 64.140625 C-27.2477549 64.14669769 -27.2477549 64.14669769 -28.62034607 64.15289307 C-29.87163048 64.14343658 -29.87163048 64.14343658 -31.14819336 64.13378906 C-31.8816246 64.13219788 -32.61505585 64.13060669 -33.37071228 64.12896729 C-35.3125 63.875 -35.3125 63.875 -38.3125 61.875 C-38.92504883 59.59106445 -38.92504883 59.59106445 -39.26953125 56.73828125 C-39.47956787 55.16953247 -39.47956787 55.16953247 -39.69384766 53.5690918 C-39.90726807 51.89520386 -39.90726807 51.89520386 -40.125 50.1875 C-41.70205597 39.07757658 -44.15292578 29.57088976 -49.51171875 19.65625 C-50.64799194 17.12873501 -50.08466629 15.47228663 -49.3125 12.875 C-48.3125 11.875 -48.3125 11.875 -46.08764648 11.76147461 C-45.12930908 11.76671143 -44.17097168 11.77194824 -43.18359375 11.77734375 C-41.63188477 11.78217773 -41.63188477 11.78217773 -40.04882812 11.78710938 C-38.96021484 11.79548828 -37.87160156 11.80386719 -36.75 11.8125 C-35.1112793 11.81926758 -35.1112793 11.81926758 -33.43945312 11.82617188 C-30.73041505 11.83800174 -28.02148401 11.85448457 -25.3125 11.875 C-25.05339844 10.95332031 -24.79429687 10.03164062 -24.52734375 9.08203125 C-23.30949472 5.86706645 -22.49994442 4.65681049 -19.875 2.5625 C-19.27816406 2.07136719 -18.68132812 1.58023438 -18.06640625 1.07421875 C-12.87254286 -2.47704196 -5.71165556 -1.93980755 0 0 Z M-13.125 9.375 C-15.98561337 12.64427242 -16.4644185 14.54532286 -16.3125 18.875 C-13.90936932 22.29764067 -12.42539267 23.64314736 -8.3125 24.5 C-4.19960733 23.64314736 -2.71563068 22.29764067 -0.3125 18.875 C-0.3125 15.32904442 -0.59161556 13.01323859 -2.5 10 C-6.3353401 7.61944408 -9.12347019 7.24085077 -13.125 9.375 Z " fill="#0159DD" transform="translate(247.3125,69.125)"/>
<path d="M0 0 C5.20397844 2.70922956 7.9851948 6.86574066 9.80078125 12.3125 C10.34089809 18.68587867 9.42211503 22.98700915 5.80078125 28.3125 C1.86414838 32.35552835 -2.51701502 34.24827552 -8.21484375 34.34765625 C-14.4202847 33.86211602 -18.34095177 31.31747227 -22.57421875 26.75 C-24.19921875 24.3125 -24.19921875 24.3125 -24.19921875 21.3125 C-34.09921875 21.3125 -43.99921875 21.3125 -54.19921875 21.3125 C-54.19921875 29.5625 -54.19921875 37.8125 -54.19921875 46.3125 C-52.54921875 46.9725 -50.89921875 47.6325 -49.19921875 48.3125 C-30.07329184 58.91842874 -30.07329184 58.91842874 -27.30078125 66.8984375 C-27.19921875 69.3125 -27.19921875 69.3125 -29.19921875 72.3125 C-31.88671875 72.9375 -31.88671875 72.9375 -35.19921875 72.3125 C-36.93801824 70.81610688 -38.40469096 69.14934748 -39.94921875 67.453125 C-42.7961858 64.74455218 -45.88491358 62.71780928 -49.19921875 60.625 C-49.78058594 60.25705322 -50.36195313 59.88910645 -50.9609375 59.51000977 C-53.95570603 57.64206495 -56.98392438 55.87314904 -60.07421875 54.16796875 C-63.19921875 52.3125 -63.19921875 52.3125 -64.19921875 50.3125 C-64.43473838 45.96038276 -64.42765154 41.60431656 -64.43945312 37.24658203 C-64.4491201 35.0845638 -64.48012369 32.92351224 -64.51171875 30.76171875 C-64.51825305 29.37760979 -64.52350184 27.99349405 -64.52734375 26.609375 C-64.53668945 25.35479492 -64.54603516 24.10021484 -64.55566406 22.80761719 C-64.16068593 18.93466724 -63.31141132 16.57202699 -61.19921875 13.3125 C-57.79583198 10.60318669 -53.74978383 11.05594689 -49.58984375 11.1171875 C-48.86303406 11.1200174 -48.13622437 11.12284729 -47.38739014 11.12576294 C-45.07449624 11.13692477 -42.76199487 11.16202149 -40.44921875 11.1875 C-38.87760977 11.19753499 -37.30599471 11.20665994 -35.734375 11.21484375 C-31.88917253 11.23685096 -28.04426211 11.27135285 -24.19921875 11.3125 C-24.08191406 10.71695312 -23.96460938 10.12140625 -23.84375 9.5078125 C-22.68475966 5.56022116 -19.83865083 2.36287207 -16.39453125 0.15625 C-11.38821437 -1.76788603 -5.0893629 -1.59099089 0 0 Z M-15.19921875 12.3125 C-16.36132094 14.70601495 -16.36132094 14.70601495 -16.19921875 17.3125 C-14.57766246 20.79884601 -13.43468583 22.15552194 -10.19921875 24.3125 C-5.30164486 24.13916872 -5.30164486 24.13916872 -1.26171875 21.625 C0.16212075 18.5260552 0.35231952 16.69067188 -0.19921875 13.3125 C-2.490683 10.30086127 -3.95925693 8.59149141 -7.69921875 7.75 C-11.09904682 8.51496132 -12.77836127 9.82439648 -15.19921875 12.3125 Z " fill="#0159DD" transform="translate(221.19921875,0.6875)"/>
<path d="M0 0 C1.3921875 0.23203125 1.3921875 0.23203125 2.8125 0.46875 C4.8125 3.46875 4.8125 3.46875 4.875 5.71875 C2.14217982 12.79193164 -4.82049465 16.76537805 -10.875 20.84375 C-11.52871582 21.28485107 -12.18243164 21.72595215 -12.85595703 22.18041992 C-16.03427286 24.26387394 -18.46036744 25.53696686 -22.1875 26.46875 C-22.1875 34.71875 -22.1875 42.96875 -22.1875 51.46875 C-12.2875 51.46875 -2.3875 51.46875 7.8125 51.46875 C8.1425 49.81875 8.4725 48.16875 8.8125 46.46875 C11.8340822 42.37529154 15.81095183 40.13870055 20.6875 38.90625 C25.93417274 38.13162708 30.1846034 38.85298236 34.8125 41.46875 C39.56664834 45.52716931 41.5867006 50.17312278 42.1875 56.28125 C42.01786693 62.26364287 39.53145475 66.8336467 35.25 70.90625 C29.86848823 74.35593703 24.00643583 74.05942997 17.8125 73.46875 C13.3648517 71.32434814 10.54809383 68.57214074 7.8125 64.46875 C7.8125 63.47875 7.8125 62.48875 7.8125 61.46875 C6.83901611 61.48446045 5.86553223 61.5001709 4.86254883 61.51635742 C1.23779633 61.57081239 -2.38692026 61.60515626 -6.01196289 61.63354492 C-7.57843107 61.64859622 -9.14485736 61.66904207 -10.71118164 61.69506836 C-12.96771606 61.73161433 -15.22369153 61.74851261 -17.48046875 61.76171875 C-18.17649704 61.77720261 -18.87252533 61.79268646 -19.58964539 61.80863953 C-23.96488755 61.81014095 -26.80124125 61.30342542 -30.1875 58.46875 C-33.37690187 52.93221364 -32.55952187 46.26975867 -32.55810547 40.06665039 C-32.56249466 37.90887423 -32.59889949 35.75312013 -32.63671875 33.59570312 C-32.64258487 32.21875695 -32.64655563 30.84180113 -32.6484375 29.46484375 C-32.66076416 27.59590454 -32.66076416 27.59590454 -32.67333984 25.68920898 C-32.09797441 21.8753168 -31.19269661 20.79549608 -28.1875 18.46875 C-26.02897743 17.20938269 -23.83752197 16.00563305 -21.625 14.84375 C-15.33365262 11.45103387 -10.66736724 7.54161227 -5.6875 2.375 C-3.1875 0.46875 -3.1875 0.46875 0 0 Z M16.8125 52.46875 C15.65039781 54.86226495 15.65039781 54.86226495 15.8125 57.46875 C17.43405629 60.95509601 18.57703292 62.31177194 21.8125 64.46875 C26.71007389 64.29541872 26.71007389 64.29541872 30.75 61.78125 C32.1738395 58.6823052 32.36403827 56.84692188 31.8125 53.46875 C29.52103575 50.45711127 28.05246182 48.74774141 24.3125 47.90625 C20.91267193 48.67121132 19.23335748 49.98064648 16.8125 52.46875 Z " fill="#0159DD" transform="translate(189.1875,182.53125)"/>
<path d="M0 0 C2.49774516 2.31041427 4.61104871 4.47907306 6.5 7.3125 C6.5 8.3025 6.5 9.2925 6.5 10.3125 C7.47348389 10.29678955 8.44696777 10.2810791 9.44995117 10.26489258 C13.07470367 10.21043761 16.69942026 10.17609374 20.32446289 10.14770508 C21.89093107 10.13265378 23.45735736 10.11220793 25.02368164 10.08618164 C27.28021606 10.04963567 29.53619153 10.03273739 31.79296875 10.01953125 C32.48899704 10.00404739 33.18502533 9.98856354 33.90214539 9.97261047 C38.27738755 9.97110905 41.11374125 10.47782458 44.5 13.3125 C46.41392212 16.78063037 46.7411605 19.69327724 46.6953125 23.61328125 C46.68886719 24.58974609 46.68242188 25.56621094 46.67578125 26.57226562 C46.65064453 28.08336914 46.65064453 28.08336914 46.625 29.625 C46.61597656 30.65173828 46.60695313 31.67847656 46.59765625 32.73632812 C46.57416201 35.26195899 46.54131131 37.7871081 46.5 40.3125 C47.56605469 39.98894531 48.63210937 39.66539063 49.73046875 39.33203125 C54.0717155 38.15787021 57.0462145 37.93506055 61.5 38.3125 C63.5 41.3125 63.5 41.3125 63.125 44 C62.91875 44.763125 62.7125 45.52625 62.5 46.3125 C61.97792969 46.48265625 61.45585938 46.6528125 60.91796875 46.828125 C60.18191406 47.07046875 59.44585937 47.3128125 58.6875 47.5625 C57.87152344 47.82933594 57.05554688 48.09617188 56.21484375 48.37109375 C54.33524634 49.02286782 52.47340647 49.72732759 50.62890625 50.47265625 C49.67886719 50.85292969 48.72882813 51.23320313 47.75 51.625 C46.86828125 51.99238281 45.9865625 52.35976563 45.078125 52.73828125 C41.86551056 53.4538181 40.37498518 52.81533316 37.5 51.3125 C36.5 50.3125 36.5 50.3125 36.38647461 47.44506836 C36.39171143 46.19346924 36.39694824 44.94187012 36.40234375 43.65234375 C36.40484131 42.43667725 36.40733887 41.22101074 36.40991211 39.96850586 C36.41901611 38.41139893 36.42812012 36.85429199 36.4375 35.25 C36.458125 30.320625 36.47875 25.39125 36.5 20.3125 C26.6 20.3125 16.7 20.3125 6.5 20.3125 C6.005 22.7875 6.005 22.7875 5.5 25.3125 C2.12293327 29.43382385 -2.24774673 32.36709441 -7.5 33.3125 C-13.53518428 33.38875684 -17.8202413 32.33926911 -22.5 28.3125 C-26.63464078 22.83689465 -28.38354902 18.19681946 -27.5 11.3125 C-25.73946304 6.02132099 -23.25940304 2.36339939 -18.5 -0.6875 C-12.4658316 -2.69888947 -5.73494967 -2.76506502 0 0 Z M-17.5 12.3125 C-18.33333333 15.3125 -18.33333333 15.3125 -17.5 18.3125 C-15.58333333 21.39583333 -15.58333333 21.39583333 -12.5 23.3125 C-8.92813335 23.3125 -6.61888401 23.05842267 -3.625 21.0625 C-2.11536655 18.7141813 -1.63336945 17.11325852 -1.5 14.3125 C-3.12155629 10.82615399 -4.26453292 9.46947806 -7.5 7.3125 C-12.49341956 6.39265955 -14.53910238 8.42103455 -17.5 12.3125 Z " fill="#0159DD" transform="translate(52.5,1.6875)"/>
<path d="M0 0 C1.9375 1.6875 1.9375 1.6875 3 4 C1.82321525 8.36271418 -0.27579454 10.4546089 -3.6875 13.3125 C-11.4157802 20.01055153 -11.4157802 20.01055153 -17.22119141 28.33740234 C-18.60250089 30.94904972 -19.88090419 32.93080274 -22 35 C-25.90005695 36.07266361 -29.61124952 35.85636908 -33.625 35.625 C-39.34607078 35.30461883 -39.34607078 35.30461883 -45 36 C-47.17213292 38.17888199 -47.80576263 40.0758515 -49 43 C-53.82351689 46.74068657 -57.64670056 48.37203296 -63.80859375 48.28125 C-68.9890618 47.6163771 -72.89062053 45.16627073 -76.4375 41.4375 C-79.88718703 36.05598823 -79.59067997 30.19393583 -79 24 C-76.84062362 19.52129344 -74.07047061 16.81801812 -70 14 C-64.60080143 12.20026714 -59.06442735 12.29887373 -53.6875 14.125 C-49.2590084 17.2146453 -46.09210793 20.56294653 -45 26 C-34.4061385 26.8810308 -34.4061385 26.8810308 -25.21875 22.61328125 C-23.76195882 20.55213286 -22.37435623 18.44058468 -21.0546875 16.2890625 C-17.08389317 9.93277196 -8.46942546 -1.52015329 0 0 Z M-68 25 C-70.34522935 27.88512978 -70.34522935 27.88512978 -69.875 31.5 C-69.29105338 34.96202048 -69.29105338 34.96202048 -67.3125 36.9375 C-64.2135552 38.3613395 -62.37817188 38.55153827 -59 38 C-55.91666667 36.08333333 -55.91666667 36.08333333 -54 33 C-53.6690684 29.39969811 -53.6690684 29.39969811 -55 26 C-57.24291412 23.4879561 -57.24291412 23.4879561 -60 22 C-63.63327194 22 -65.04735927 22.95586411 -68 25 Z " fill="#0159DD" transform="translate(79,55)"/>
<path d="M0 0 C0.763125 0.20625 1.52625 0.4125 2.3125 0.625 C2.68375 1.800625 3.055 2.97625 3.4375 4.1875 C4.92891678 8.66888631 6.62302064 13.05329147 8.375 17.4375 C8.6323291 18.08340088 8.8896582 18.72930176 9.15478516 19.39477539 C10.18662215 21.9556921 11.22688359 24.46266239 12.515625 26.90625 C13.66830639 29.39242555 13.07424877 31.06275414 12.3125 33.625 C11.3125 34.625 11.3125 34.625 9.08764648 34.73852539 C8.12930908 34.73328857 7.17097168 34.72805176 6.18359375 34.72265625 C5.14912109 34.71943359 4.11464844 34.71621094 3.04882812 34.71289062 C1.96021484 34.70451172 0.87160156 34.69613281 -0.25 34.6875 C-1.8887207 34.68073242 -1.8887207 34.68073242 -3.56054688 34.67382812 C-6.26958495 34.66199826 -8.97851599 34.64551543 -11.6875 34.625 C-11.94660156 35.54667969 -12.20570312 36.46835938 -12.47265625 37.41796875 C-13.69050528 40.63293355 -14.50005558 41.84318951 -17.125 43.9375 C-18.02025391 44.67419922 -18.02025391 44.67419922 -18.93359375 45.42578125 C-23.37457769 48.46226693 -28.53298734 48.05991201 -33.6875 47.625 C-39.36208978 45.69778083 -43.00800871 41.98398258 -45.6875 36.625 C-46.39077889 30.34000134 -46.88491499 24.35987881 -43.125 19 C-39.00265443 14.42390679 -34.83554849 12.86367205 -28.75 12.1875 C-23.35978791 12.43820754 -18.74683179 14.38616229 -15.07421875 18.37890625 C-11.6875 22.94859155 -11.6875 22.94859155 -11.6875 25.625 C-7.7275 25.625 -3.7675 25.625 0.3125 25.625 C-0.615625 23.6140625 -0.615625 23.6140625 -1.5625 21.5625 C-4.52281012 14.84406567 -6.31120352 8.98470153 -5.6875 1.625 C-2.6875 -0.375 -2.6875 -0.375 0 0 Z M-34.625 24.6875 C-37.03467255 27.52124729 -37.03467255 27.52124729 -36.6875 31.25 C-35.59685343 35.15671616 -35.59685343 35.15671616 -32.6875 37.625 C-30.32287508 38.63135246 -30.32287508 38.63135246 -27.6875 38.625 C-24.20115399 37.00344371 -22.84447806 35.86046708 -20.6875 32.625 C-20.86083128 27.72742611 -20.86083128 27.72742611 -23.375 23.6875 C-27.88714918 21.61435038 -30.55830376 21.83216009 -34.625 24.6875 Z " fill="#0159DD" transform="translate(45.6875,140.375)"/>
<path d="M0 0 C2.375 0.6875 2.375 0.6875 3.375 1.6875 C4.19147908 10.34217828 1.20929867 18.01890266 -2.625 25.6875 C1.335 25.6875 5.295 25.6875 9.375 25.6875 C10.035 24.0375 10.695 22.3875 11.375 20.6875 C14.32884752 16.09262607 17.18004049 14.33257051 22.375 12.6875 C28.70766292 11.98387079 33.09939256 13.06125098 38.375 16.6875 C43.45023386 22.02300226 43.72487281 26.62724251 43.65625 33.73828125 C43.15260029 39.01960807 40.60812174 41.57468282 36.8125 45 C31.97093377 48.35185355 27.06221723 48.16735895 21.375 47.6875 C16.09773265 45.89522052 13.53511067 43.11165494 10.375 38.6875 C9.73828125 36.49609375 9.73828125 36.49609375 9.375 34.6875 C8.34560303 34.70321045 8.34560303 34.70321045 7.29541016 34.71923828 C4.19697711 34.76071874 1.09860239 34.78680069 -2 34.8125 C-3.08023438 34.82925781 -4.16046875 34.84601563 -5.2734375 34.86328125 C-6.3046875 34.86972656 -7.3359375 34.87617188 -8.3984375 34.8828125 C-9.82808838 34.89852295 -9.82808838 34.89852295 -11.28662109 34.91455078 C-13.625 34.6875 -13.625 34.6875 -15.625 32.6875 C-15.28685559 28.00081849 -13.69304931 24.2389409 -11.75 20 C-9.36250455 14.69697126 -7.6000889 9.48450744 -6.36328125 3.796875 C-5.17529226 0.40262073 -3.48661424 -0.41507312 0 0 Z M20.4375 24.75 C18.02782745 27.58374729 18.02782745 27.58374729 18.375 31.3125 C19.46564657 35.21921616 19.46564657 35.21921616 22.375 37.6875 C24.73962492 38.69385246 24.73962492 38.69385246 27.375 38.6875 C30.86134601 37.06594371 32.21802194 35.92296708 34.375 32.6875 C34.20166872 27.78992611 34.20166872 27.78992611 31.6875 23.75 C27.17535082 21.67685038 24.50419624 21.89466009 20.4375 24.75 Z " fill="#0159DD" transform="translate(212.625,140.3125)"/>
<path d="M0 0 C1.26734985 0.08809937 1.26734985 0.08809937 2.56030273 0.17797852 C3.50558838 0.23453613 4.45087402 0.29109375 5.42480469 0.34936523 C6.43760498 0.41784668 7.45040527 0.48632812 8.49389648 0.55688477 C16.71434774 1.04222031 24.68372096 1.15540654 32.87695312 0.26171875 C34.82592773 0.08032227 34.82592773 0.08032227 37.93139648 0.11938477 C39.93139648 3.11938477 39.93139648 3.11938477 39.80639648 5.68188477 C38.93139648 8.11938477 38.93139648 8.11938477 37.26733398 9.23266602 C34.36895423 10.33288709 31.77135279 10.54286588 28.68139648 10.74438477 C27.60374023 10.81915039 26.52608398 10.89391602 25.41577148 10.97094727 C24.18600586 11.04442383 24.18600586 11.04442383 22.93139648 11.11938477 C22.94187012 12.19945801 22.95234375 13.27953125 22.96313477 14.39233398 C22.99927842 18.39164935 23.02227633 22.39095023 23.04125977 26.39038086 C23.05133024 28.12282741 23.06498738 29.85525692 23.08227539 31.58764648 C23.1064781 34.07483115 23.11786887 36.56179152 23.12670898 39.04907227 C23.13703156 39.82620575 23.14735413 40.60333923 23.1579895 41.40402222 C23.1583892 43.3106397 23.05371788 45.21669513 22.93139648 47.11938477 C20.93139648 49.11938477 20.93139648 49.11938477 17.93139648 49.36938477 C14.93139648 49.11938477 14.93139648 49.11938477 12.93139648 47.11938477 C12.75621901 44.39452748 12.69990515 41.77279114 12.73608398 39.04907227 C12.73891388 38.25284454 12.74174377 37.45661682 12.74465942 36.63626099 C12.75587009 34.08881714 12.78097587 31.54172266 12.80639648 28.99438477 C12.81642516 27.26912942 12.8255512 25.54386857 12.83374023 23.81860352 C12.85581227 19.58539563 12.89034782 15.35244946 12.93139648 11.11938477 C11.7190332 11.06331055 11.7190332 11.06331055 10.48217773 11.00610352 C8.87922852 10.90749023 8.87922852 10.90749023 7.24389648 10.80688477 C6.1881543 10.74887695 5.13241211 10.69086914 4.04467773 10.63110352 C0.65893593 10.07460141 -1.34432868 9.18504371 -4.06860352 7.11938477 C-4.50610352 4.55688477 -4.50610352 4.55688477 -4.06860352 2.11938477 C-2.06860352 0.11938477 -2.06860352 0.11938477 0 0 Z " fill="#0259DD" transform="translate(110.068603515625,206.880615234375)"/>
<path d="M0 0 C3 0.25 3 0.25 5 2.25 C4.69333284 6.00667265 3.93845074 9.52952971 3.0625 13.1875 C2.34588187 16.22258854 1.86645421 19.21612211 1.53125 22.3125 C1.41317993 23.39156616 1.41317993 23.39156616 1.29272461 24.49243164 C1.14080333 25.94091967 1.00073138 27.39070588 0.87329102 28.84155273 C0.66015625 30.87109375 0.66015625 30.87109375 0 34.25 C-3.07121846 36.29747898 -3.70124914 36.50127592 -7.16430664 36.50878906 C-7.99849625 36.51509338 -8.83268585 36.52139771 -9.69215393 36.52789307 C-10.5890947 36.5238446 -11.48603546 36.51979614 -12.41015625 36.515625 C-13.33340195 36.51753845 -14.25664764 36.5194519 -15.20787048 36.52142334 C-17.15884677 36.52278408 -19.10983214 36.51909541 -21.06079102 36.51074219 C-24.05440489 36.50002897 -27.0474203 36.51064751 -30.04101562 36.5234375 C-31.93489716 36.52211612 -33.82877833 36.51955419 -35.72265625 36.515625 C-37.07110374 36.52169769 -37.07110374 36.52169769 -38.4467926 36.52789307 C-39.69334877 36.51843658 -39.69334877 36.51843658 -40.96508789 36.50878906 C-41.69772354 36.50719788 -42.43035919 36.50560669 -43.18519592 36.50396729 C-45 36.25 -45 36.25 -47 34.25 C-47.25 31.25 -47.25 31.25 -47 28.25 C-45 26.25 -45 26.25 -41.46826172 26.02294922 C-39.95536669 26.02326637 -38.44244912 26.03459367 -36.9296875 26.0546875 C-36.13345978 26.0575174 -35.33723206 26.06034729 -34.51687622 26.06326294 C-31.96943237 26.0744736 -29.42233789 26.09957938 -26.875 26.125 C-25.14974465 26.13502867 -23.42448381 26.14415472 -21.69921875 26.15234375 C-17.46601086 26.17441578 -13.2330647 26.20895133 -9 26.25 C-8.94448975 25.46061035 -8.88897949 24.6712207 -8.83178711 23.85791016 C-8.4133779 18.33457086 -7.96134299 13.00293523 -6.5625 7.625 C-6.31628906 6.64273438 -6.07007813 5.66046875 -5.81640625 4.6484375 C-4.60168249 1.0798232 -3.79022365 0.31585197 0 0 Z " fill="#025ADD" transform="translate(47,96.75)"/>
<path d="M0 0 C3 0.25 3 0.25 5 2.25 C5.17517747 4.97485728 5.23149133 7.59659362 5.1953125 10.3203125 C5.1924826 11.11654022 5.18965271 11.91276794 5.18673706 12.73312378 C5.1755264 15.28056763 5.15042062 17.82766211 5.125 20.375 C5.11497133 22.10025535 5.10584528 23.82551619 5.09765625 25.55078125 C5.07558422 29.78398914 5.04104867 34.0169353 5 38.25 C5.80824219 38.28738281 6.61648437 38.32476562 7.44921875 38.36328125 C9.05216797 38.46189453 9.05216797 38.46189453 10.6875 38.5625 C12.27111328 38.64951172 12.27111328 38.64951172 13.88671875 38.73828125 C17.23009964 39.28782064 19.23526262 40.33674018 22 42.25 C21.125 48.125 21.125 48.125 20 49.25 C17.44319982 49.18444102 14.92400509 49.05674724 12.375 48.875 C11.67503906 48.83117188 10.97507813 48.78734375 10.25390625 48.7421875 C1.26598554 48.14188111 1.26598554 48.14188111 -3 47.25 C-5.04747898 44.17878154 -5.25127592 43.54875086 -5.25878906 40.08569336 C-5.26509338 39.25150375 -5.27139771 38.41731415 -5.27789307 37.55784607 C-5.2738446 36.6609053 -5.26979614 35.76396454 -5.265625 34.83984375 C-5.26753845 33.91659805 -5.2694519 32.99335236 -5.27142334 32.04212952 C-5.27278408 30.09115323 -5.26909541 28.14016786 -5.26074219 26.18920898 C-5.25002897 23.19559511 -5.26064751 20.2025797 -5.2734375 17.20898438 C-5.27211612 15.31510284 -5.26955419 13.42122167 -5.265625 11.52734375 C-5.26967346 10.62837875 -5.27372192 9.72941376 -5.27789307 8.8032074 C-5.27158875 7.97216995 -5.26528442 7.14113251 -5.25878906 6.28491211 C-5.25719788 5.55227646 -5.25560669 4.81964081 -5.25396729 4.06480408 C-4.772901 0.62719181 -3.23696148 0.26974679 0 0 Z " fill="#0259DD" transform="translate(128,-0.25)"/>
<path d="M0 0 C3.58559961 2.21239125 5.39116876 4.15707123 7 8 C7.72913029 12.66304255 7.4660195 16.11789165 5.25 20.3125 C3.26454232 22.6840189 1.22151592 24.85253461 -1 27 C-1.66 27.99 -2.32 28.98 -3 30 C-5.9375 30.5 -5.9375 30.5 -9 30 C-10.5625 27.75 -10.5625 27.75 -12 25 C-13.66270287 23.66172696 -15.32916181 22.32810215 -17 21 C-19.57266727 16.78937156 -19.6677088 12.80750339 -19 8 C-17.21413657 4.29089903 -15.63776905 2.45978699 -12.3125 0.0625 C-7.92156804 -1.34591214 -4.4347481 -1.21096443 0 0 Z M-8 9 C-8.66 9.66 -9.32 10.32 -10 11 C-9.6814823 13.10820797 -9.6814823 13.10820797 -9 15 C-6.60280568 15.67958603 -6.60280568 15.67958603 -4 16 C-3.34 15.34 -2.68 14.68 -2 14 C-2.3185177 11.89179203 -2.3185177 11.89179203 -3 10 C-5.39719432 9.32041397 -5.39719432 9.32041397 -8 9 Z " fill="#0159DC" transform="translate(134,124)"/>
</svg>
