<?xml version="1.0" encoding="UTF-8"?>
<svg version="1.1" xmlns="http://www.w3.org/2000/svg" width="256" height="256">
<path d="M0 0 C0.66 -0.0103125 1.32 -0.020625 2 -0.03125 C4.95613104 0.75397231 6.09984561 2.12505125 8 4.5 C8.45410156 7.52441406 8.45410156 7.52441406 8.390625 11.015625 C8.37773438 12.26601563 8.36484375 13.51640625 8.3515625 14.8046875 C8.31804687 16.10664063 8.28453125 17.40859375 8.25 18.75 C8.23195313 20.06742188 8.21390625 21.38484375 8.1953125 22.7421875 C8.14816882 25.99510156 8.07642616 29.24764217 8 32.5 C13.28 32.5 18.56 32.5 24 32.5 C23.95359375 30.52515625 23.9071875 28.5503125 23.859375 26.515625 C23.82186012 23.92709843 23.78545966 21.33855554 23.75 18.75 C23.71648437 17.44804687 23.68296875 16.14609375 23.6484375 14.8046875 C23.62910156 12.92910156 23.62910156 12.92910156 23.609375 11.015625 C23.5779541 9.28747559 23.5779541 9.28747559 23.54589844 7.52441406 C24.09481149 3.86853507 25.116418 2.73206138 28 0.5 C30 -0.03125 30 -0.03125 32 0 C32.66 -0.0103125 33.32 -0.020625 34 -0.03125 C36.95613104 0.75397231 38.09984561 2.12505125 40 4.5 C40.45410156 7.52441406 40.45410156 7.52441406 40.390625 11.015625 C40.37773437 12.26601563 40.36484375 13.51640625 40.3515625 14.8046875 C40.30128906 16.75761719 40.30128906 16.75761719 40.25 18.75 C40.23195312 20.06742188 40.21390625 21.38484375 40.1953125 22.7421875 C40.14816882 25.99510156 40.07642616 29.24764217 40 32.5 C45.28 32.5 50.56 32.5 56 32.5 C55.95359375 30.52515625 55.9071875 28.5503125 55.859375 26.515625 C55.82186012 23.92709843 55.78545966 21.33855554 55.75 18.75 C55.71648437 17.44804687 55.68296875 16.14609375 55.6484375 14.8046875 C55.63554687 13.55429687 55.62265625 12.30390625 55.609375 11.015625 C55.58842773 9.86352539 55.56748047 8.71142578 55.54589844 7.52441406 C56.09481149 3.86853507 57.116418 2.73206138 60 0.5 C62 -0.03125 62 -0.03125 64 0 C64.66 -0.0103125 65.32 -0.020625 66 -0.03125 C68.95613104 0.75397231 70.09984561 2.12505125 72 4.5 C72.45410156 7.52441406 72.45410156 7.52441406 72.390625 11.015625 C72.37773437 12.26601563 72.36484375 13.51640625 72.3515625 14.8046875 C72.30128906 16.75761719 72.30128906 16.75761719 72.25 18.75 C72.23195312 20.06742188 72.21390625 21.38484375 72.1953125 22.7421875 C72.14816271 25.99552308 72.08236044 29.24739625 72 32.5 C72.8971875 32.47905273 73.794375 32.45810547 74.71875 32.43652344 C78.08099859 32.36792384 81.44249235 32.31799706 84.80517578 32.28027344 C86.25418917 32.26028705 87.70312325 32.23308803 89.15185547 32.19824219 C98.55976527 31.97779496 105.7751879 31.92146257 113.2421875 38.46484375 C113.78101563 39.11582031 114.31984375 39.76679687 114.875 40.4375 C115.42929688 41.08589844 115.98359375 41.73429687 116.5546875 42.40234375 C119.80273457 47.11640126 120.24200278 51.09666251 120.1953125 56.76953125 C120.1924826 57.45053391 120.18965271 58.13153656 120.18673706 58.83317566 C120.17560525 60.99313455 120.15051457 63.15266794 120.125 65.3125 C120.11496111 66.78319711 120.10583685 68.25390076 120.09765625 69.72460938 C120.07568913 73.31654286 120.0412082 76.90822985 120 80.5 C120.82725586 80.47905273 121.65451172 80.45810547 122.50683594 80.43652344 C126.2544337 80.35338381 130.00183749 80.30134469 133.75 80.25 C135.05195313 80.21648437 136.35390625 80.18296875 137.6953125 80.1484375 C138.94570312 80.13554688 140.19609375 80.12265625 141.484375 80.109375 C142.63647461 80.08842773 143.78857422 80.06748047 144.97558594 80.04589844 C148.63146493 80.59481149 149.76793862 81.616418 152 84.5 C152.53125 86.5 152.53125 86.5 152.5 88.5 C152.51546875 89.49 152.51546875 89.49 152.53125 90.5 C151.74602769 93.45613104 150.37494875 94.59984561 148 96.5 C144.97558594 96.95410156 144.97558594 96.95410156 141.484375 96.890625 C140.23398438 96.87773438 138.98359375 96.86484375 137.6953125 96.8515625 C136.39335937 96.81804687 135.09140625 96.78453125 133.75 96.75 C132.43257812 96.73195313 131.11515625 96.71390625 129.7578125 96.6953125 C126.50489844 96.64816882 123.25235783 96.57642616 120 96.5 C120 101.78 120 107.06 120 112.5 C121.97484375 112.45359375 123.9496875 112.4071875 125.984375 112.359375 C128.57290157 112.32186012 131.16144446 112.28545966 133.75 112.25 C135.05195313 112.21648437 136.35390625 112.18296875 137.6953125 112.1484375 C138.94570312 112.13554688 140.19609375 112.12265625 141.484375 112.109375 C142.63647461 112.08842773 143.78857422 112.06748047 144.97558594 112.04589844 C148.63146493 112.59481149 149.76793862 113.616418 152 116.5 C152.53125 118.5 152.53125 118.5 152.5 120.5 C152.51546875 121.49 152.51546875 121.49 152.53125 122.5 C151.74602769 125.45613104 150.37494875 126.59984561 148 128.5 C144.97558594 128.95410156 144.97558594 128.95410156 141.484375 128.890625 C139.60878906 128.87128906 139.60878906 128.87128906 137.6953125 128.8515625 C135.74238281 128.80128906 135.74238281 128.80128906 133.75 128.75 C132.43257812 128.73195312 131.11515625 128.71390625 129.7578125 128.6953125 C126.50489844 128.64816882 123.25235783 128.57642616 120 128.5 C120 133.78 120 139.06 120 144.5 C122.96226562 144.43039063 122.96226562 144.43039063 125.984375 144.359375 C128.57290157 144.32186012 131.16144446 144.28545966 133.75 144.25 C135.05195313 144.21648437 136.35390625 144.18296875 137.6953125 144.1484375 C138.94570312 144.13554687 140.19609375 144.12265625 141.484375 144.109375 C142.63647461 144.08842773 143.78857422 144.06748047 144.97558594 144.04589844 C148.63146493 144.59481149 149.76793862 145.616418 152 148.5 C152.53125 150.5 152.53125 150.5 152.5 152.5 C152.51546875 153.49 152.51546875 153.49 152.53125 154.5 C151.74602769 157.45613104 150.37494875 158.59984561 148 160.5 C144.97558594 160.95410156 144.97558594 160.95410156 141.484375 160.890625 C139.60878906 160.87128906 139.60878906 160.87128906 137.6953125 160.8515625 C135.74238281 160.80128906 135.74238281 160.80128906 133.75 160.75 C132.43257812 160.73195312 131.11515625 160.71390625 129.7578125 160.6953125 C126.50447692 160.64816271 123.25260375 160.58236044 120 160.5 C120.02094727 161.3971875 120.04189453 162.294375 120.06347656 163.21875 C120.13207616 166.58099859 120.18200294 169.94249235 120.21972656 173.30517578 C120.23971295 174.75418917 120.26691197 176.20312325 120.30175781 177.65185547 C120.52220504 187.05976527 120.57853743 194.2751879 114.03515625 201.7421875 C113.38417969 202.28101563 112.73320312 202.81984375 112.0625 203.375 C111.41410156 203.92929688 110.76570312 204.48359375 110.09765625 205.0546875 C105.38359874 208.30273457 101.40333749 208.74200278 95.73046875 208.6953125 C95.04946609 208.6924826 94.36846344 208.68965271 93.66682434 208.68673706 C91.50686545 208.67560525 89.34733206 208.65051457 87.1875 208.625 C85.71680289 208.61496111 84.24609924 208.60583685 82.77539062 208.59765625 C79.18345714 208.57568913 75.59177015 208.5412082 72 208.5 C72.02094727 209.32725586 72.04189453 210.15451172 72.06347656 211.00683594 C72.14661619 214.7544337 72.19865531 218.50183749 72.25 222.25 C72.30027344 224.20292969 72.30027344 224.20292969 72.3515625 226.1953125 C72.36445313 227.44570312 72.37734375 228.69609375 72.390625 229.984375 C72.41157227 231.13647461 72.43251953 232.28857422 72.45410156 233.47558594 C71.90518851 237.13146493 70.883582 238.26793862 68 240.5 C66 241.03125 66 241.03125 64 241 C63.01 241.01546875 63.01 241.01546875 62 241.03125 C59.04386896 240.24602769 57.90015439 238.87494875 56 236.5 C55.54589844 233.47558594 55.54589844 233.47558594 55.609375 229.984375 C55.62226563 228.73398438 55.63515625 227.48359375 55.6484375 226.1953125 C55.69871094 224.24238281 55.69871094 224.24238281 55.75 222.25 C55.76804688 220.93257812 55.78609375 219.61515625 55.8046875 218.2578125 C55.85183118 215.00489844 55.92357384 211.75235783 56 208.5 C50.72 208.5 45.44 208.5 40 208.5 C40.04640625 210.47484375 40.0928125 212.4496875 40.140625 214.484375 C40.17813988 217.07290157 40.21454034 219.66144446 40.25 222.25 C40.30027344 224.20292969 40.30027344 224.20292969 40.3515625 226.1953125 C40.36445313 227.44570312 40.37734375 228.69609375 40.390625 229.984375 C40.41157227 231.13647461 40.43251953 232.28857422 40.45410156 233.47558594 C39.90518851 237.13146493 38.883582 238.26793862 36 240.5 C34 241.03125 34 241.03125 32 241 C31.01 241.01546875 31.01 241.01546875 30 241.03125 C27.04386896 240.24602769 25.90015439 238.87494875 24 236.5 C23.54589844 233.47558594 23.54589844 233.47558594 23.609375 229.984375 C23.62226562 228.73398438 23.63515625 227.48359375 23.6484375 226.1953125 C23.68195313 224.89335937 23.71546875 223.59140625 23.75 222.25 C23.76804687 220.93257812 23.78609375 219.61515625 23.8046875 218.2578125 C23.85183118 215.00489844 23.92357384 211.75235783 24 208.5 C18.72 208.5 13.44 208.5 8 208.5 C8.04640625 210.47484375 8.0928125 212.4496875 8.140625 214.484375 C8.17813988 217.07290157 8.21454034 219.66144446 8.25 222.25 C8.28351563 223.55195313 8.31703125 224.85390625 8.3515625 226.1953125 C8.37089844 228.07089844 8.37089844 228.07089844 8.390625 229.984375 C8.4220459 231.71252441 8.4220459 231.71252441 8.45410156 233.47558594 C7.90518851 237.13146493 6.883582 238.26793862 4 240.5 C2 241.03125 2 241.03125 0 241 C-0.99 241.01546875 -0.99 241.01546875 -2 241.03125 C-4.95613104 240.24602769 -6.09984561 238.87494875 -8 236.5 C-8.45410156 233.47558594 -8.45410156 233.47558594 -8.390625 229.984375 C-8.37773438 228.73398438 -8.36484375 227.48359375 -8.3515625 226.1953125 C-8.31804687 224.89335937 -8.28453125 223.59140625 -8.25 222.25 C-8.23195313 220.93257812 -8.21390625 219.61515625 -8.1953125 218.2578125 C-8.14816271 215.00447692 -8.08236044 211.75260375 -8 208.5 C-8.8971875 208.52094727 -9.794375 208.54189453 -10.71875 208.56347656 C-14.08099859 208.63207616 -17.44249235 208.68200294 -20.80517578 208.71972656 C-22.25418917 208.73971295 -23.70312325 208.76691197 -25.15185547 208.80175781 C-34.55976527 209.02220504 -41.7751879 209.07853743 -49.2421875 202.53515625 C-50.05042969 201.55869141 -50.05042969 201.55869141 -50.875 200.5625 C-51.42929687 199.91410156 -51.98359375 199.26570312 -52.5546875 198.59765625 C-55.80273457 193.88359874 -56.24200278 189.90333749 -56.1953125 184.23046875 C-56.1924826 183.54946609 -56.18965271 182.86846344 -56.18673706 182.16682434 C-56.17560525 180.00686545 -56.15051457 177.84733206 -56.125 175.6875 C-56.11496111 174.21680289 -56.10583685 172.74609924 -56.09765625 171.27539062 C-56.07568913 167.68345714 -56.0412082 164.09177015 -56 160.5 C-56.82725586 160.52094727 -57.65451172 160.54189453 -58.50683594 160.56347656 C-62.2544337 160.64661619 -66.00183749 160.69865531 -69.75 160.75 C-71.70292969 160.80027344 -71.70292969 160.80027344 -73.6953125 160.8515625 C-74.94570312 160.86445313 -76.19609375 160.87734375 -77.484375 160.890625 C-78.63647461 160.91157227 -79.78857422 160.93251953 -80.97558594 160.95410156 C-84.63146493 160.40518851 -85.76793862 159.383582 -88 156.5 C-88.53125 154.5 -88.53125 154.5 -88.5 152.5 C-88.51546875 151.51 -88.51546875 151.51 -88.53125 150.5 C-87.74602769 147.54386896 -86.37494875 146.40015439 -84 144.5 C-80.97558594 144.04589844 -80.97558594 144.04589844 -77.484375 144.109375 C-75.60878906 144.12871094 -75.60878906 144.12871094 -73.6953125 144.1484375 C-71.74238281 144.19871094 -71.74238281 144.19871094 -69.75 144.25 C-68.43257812 144.26804688 -67.11515625 144.28609375 -65.7578125 144.3046875 C-62.50489844 144.35183118 -59.25235783 144.42357384 -56 144.5 C-56 139.22 -56 133.94 -56 128.5 C-57.97484375 128.54640625 -59.9496875 128.5928125 -61.984375 128.640625 C-64.57290157 128.67813988 -67.16144446 128.71454034 -69.75 128.75 C-71.70292969 128.80027344 -71.70292969 128.80027344 -73.6953125 128.8515625 C-74.94570312 128.86445313 -76.19609375 128.87734375 -77.484375 128.890625 C-78.63647461 128.91157227 -79.78857422 128.93251953 -80.97558594 128.95410156 C-84.63146493 128.40518851 -85.76793862 127.383582 -88 124.5 C-88.53125 122.5 -88.53125 122.5 -88.5 120.5 C-88.51546875 119.51 -88.51546875 119.51 -88.53125 118.5 C-87.74602769 115.54386896 -86.37494875 114.40015439 -84 112.5 C-80.97558594 112.04589844 -80.97558594 112.04589844 -77.484375 112.109375 C-76.23398438 112.12226562 -74.98359375 112.13515625 -73.6953125 112.1484375 C-72.39335938 112.18195313 -71.09140625 112.21546875 -69.75 112.25 C-68.43257812 112.26804687 -67.11515625 112.28609375 -65.7578125 112.3046875 C-62.50489844 112.35183118 -59.25235783 112.42357384 -56 112.5 C-56 107.22 -56 101.94 -56 96.5 C-57.97484375 96.54640625 -59.9496875 96.5928125 -61.984375 96.640625 C-64.57290157 96.67813988 -67.16144446 96.71454034 -69.75 96.75 C-71.05195312 96.78351563 -72.35390625 96.81703125 -73.6953125 96.8515625 C-74.94570312 96.86445312 -76.19609375 96.87734375 -77.484375 96.890625 C-78.63647461 96.91157227 -79.78857422 96.93251953 -80.97558594 96.95410156 C-84.63146493 96.40518851 -85.76793862 95.383582 -88 92.5 C-88.53125 90.5 -88.53125 90.5 -88.5 88.5 C-88.51546875 87.51 -88.51546875 87.51 -88.53125 86.5 C-87.74602769 83.54386896 -86.37494875 82.40015439 -84 80.5 C-80.97558594 80.04589844 -80.97558594 80.04589844 -77.484375 80.109375 C-76.23398438 80.12226562 -74.98359375 80.13515625 -73.6953125 80.1484375 C-72.39335938 80.18195313 -71.09140625 80.21546875 -69.75 80.25 C-68.43257812 80.26804687 -67.11515625 80.28609375 -65.7578125 80.3046875 C-62.50447692 80.35183729 -59.25260375 80.41763956 -56 80.5 C-56.02094727 79.6028125 -56.04189453 78.705625 -56.06347656 77.78125 C-56.13207616 74.41900141 -56.18200294 71.05750765 -56.21972656 67.69482422 C-56.23971295 66.24581083 -56.26691197 64.79687675 -56.30175781 63.34814453 C-56.52220504 53.94023473 -56.57853743 46.7248121 -50.03515625 39.2578125 C-49.38417969 38.71898437 -48.73320313 38.18015625 -48.0625 37.625 C-47.08990234 36.79355469 -47.08990234 36.79355469 -46.09765625 35.9453125 C-41.38359874 32.69726543 -37.40333749 32.25799722 -31.73046875 32.3046875 C-31.04946609 32.3075174 -30.36846344 32.31034729 -29.66682434 32.31326294 C-27.50686545 32.32439475 -25.34733206 32.34948543 -23.1875 32.375 C-21.71680289 32.38503889 -20.24609924 32.39416315 -18.77539062 32.40234375 C-15.18345714 32.42431087 -11.59177015 32.4587918 -8 32.5 C-8.0314209 31.25911621 -8.0314209 31.25911621 -8.06347656 29.99316406 C-8.14661619 26.2455663 -8.19865531 22.49816251 -8.25 18.75 C-8.28351563 17.44804687 -8.31703125 16.14609375 -8.3515625 14.8046875 C-8.37089844 12.92910156 -8.37089844 12.92910156 -8.390625 11.015625 C-8.4220459 9.28747559 -8.4220459 9.28747559 -8.45410156 7.52441406 C-7.72635896 2.67749179 -4.9699792 -0.07765593 0 0 Z M-38 51.5 C-39.77337574 55.0648188 -40.25197773 57.9640656 -40.26069641 61.92027283 C-40.26778122 62.99548691 -40.27486603 64.07070099 -40.28216553 65.17849731 C-40.27968811 66.3479892 -40.27721069 67.51748108 -40.2746582 68.72241211 C-40.27976913 69.96196152 -40.28488007 71.20151093 -40.29014587 72.47862244 C-40.30165391 75.87126371 -40.30411715 79.26366044 -40.30158257 82.65630412 C-40.30051135 85.49175807 -40.3054001 88.32718959 -40.310188 91.16263872 C-40.32127521 97.85347876 -40.32172497 104.54426265 -40.31567383 111.23510742 C-40.30963339 118.13057593 -40.32194849 125.02584042 -40.3432439 131.92127413 C-40.3608737 137.84839677 -40.3668591 143.77545455 -40.36360615 149.70260245 C-40.3617954 153.2395807 -40.36440863 156.7764134 -40.37832069 160.31336784 C-40.39325788 164.2583908 -40.3839168 168.20315491 -40.37231445 172.14819336 C-40.37995819 173.31566101 -40.38760193 174.48312866 -40.39547729 175.68597412 C-40.42784552 183.5674489 -40.42784552 183.5674489 -37 190.5 C-33.4351812 192.27337574 -30.5359344 192.75197773 -26.57972717 192.76069641 C-25.50451309 192.76778122 -24.42929901 192.77486603 -23.32150269 192.78216553 C-21.56726486 192.7784494 -21.56726486 192.7784494 -19.77758789 192.7746582 C-18.53803848 192.77976913 -17.29848907 192.78488007 -16.02137756 192.79014587 C-12.62873629 192.80165391 -9.23633956 192.80411715 -5.84369588 192.80158257 C-3.00824193 192.80051135 -0.17281041 192.8054001 2.66263872 192.810188 C9.35347876 192.82127521 16.04426265 192.82172497 22.73510742 192.81567383 C29.63057593 192.80963339 36.52584042 192.82194849 43.42127413 192.8432439 C49.34839677 192.8608737 55.27545455 192.8668591 61.20260245 192.86360615 C64.7395807 192.8617954 68.2764134 192.86440863 71.81336784 192.87832069 C75.7583908 192.89325788 79.70315491 192.8839168 83.64819336 192.87231445 C84.81566101 192.87995819 85.98312866 192.88760193 87.18597412 192.89547729 C95.0674489 192.92784552 95.0674489 192.92784552 102 189.5 C103.77337574 185.9351812 104.25197773 183.0359344 104.26069641 179.07972717 C104.26778122 178.00451309 104.27486603 176.92929901 104.28216553 175.82150269 C104.27968811 174.6520108 104.27721069 173.48251892 104.2746582 172.27758789 C104.27976913 171.03803848 104.28488007 169.79848907 104.29014587 168.52137756 C104.30165391 165.12873629 104.30411715 161.73633956 104.30158257 158.34369588 C104.30051135 155.50824193 104.3054001 152.67281041 104.310188 149.83736128 C104.32127521 143.14652124 104.32172497 136.45573735 104.31567383 129.76489258 C104.30963339 122.86942407 104.32194849 115.97415958 104.3432439 109.07872587 C104.3608737 103.15160323 104.3668591 97.22454545 104.36360615 91.29739755 C104.3617954 87.7604193 104.36440863 84.2235866 104.37832069 80.68663216 C104.39325788 76.7416092 104.3839168 72.79684509 104.37231445 68.85180664 C104.37995819 67.68433899 104.38760193 66.51687134 104.39547729 65.31402588 C104.42784552 57.4325511 104.42784552 57.4325511 101 50.5 C97.4351812 48.72662426 94.5359344 48.24802227 90.57972717 48.23930359 C89.50451309 48.23221878 88.42929901 48.22513397 87.32150269 48.21783447 C85.56726486 48.2215506 85.56726486 48.2215506 83.77758789 48.2253418 C82.53803848 48.22023087 81.29848907 48.21511993 80.02137756 48.20985413 C76.62873629 48.19834609 73.23633956 48.19588285 69.84369588 48.19841743 C67.00824193 48.19948865 64.17281041 48.1945999 61.33736128 48.189812 C54.64652124 48.17872479 47.95573735 48.17827503 41.26489258 48.18432617 C34.36942407 48.19036661 27.47415958 48.17805151 20.57872587 48.1567561 C14.65160323 48.1391263 8.72454545 48.1331409 2.79739755 48.13639385 C-0.7395807 48.1382046 -4.2764134 48.13559137 -7.81336784 48.12167931 C-11.7583908 48.10674212 -15.70315491 48.1160832 -19.64819336 48.12768555 C-20.81566101 48.12004181 -21.98312866 48.11239807 -23.18597412 48.10452271 C-31.0674489 48.07215448 -31.0674489 48.07215448 -38 51.5 Z " fill="#0159DC" transform="translate(96,7.5)"/>
<path d="M0 0 C5.82485779 3.51996782 10.54466582 8.98962934 12.5625 15.5 C13.36764105 23.33608208 13.68710392 31.11922577 8.5625 37.5 C3.75801361 42.54521222 -0.59927055 46.10562995 -7.70703125 46.8359375 C-16.22326573 46.92983204 -22.11345494 46.6177288 -28.40234375 40.62890625 C-34.7841668 33.72505269 -35.91792252 28.29832071 -35.7421875 18.9453125 C-35.04689797 11.08319245 -31.38995981 6.95041296 -25.53515625 1.9453125 C-18.47077988 -2.92213491 -7.84396301 -3.47595223 0 0 Z M-16.8125 17.125 C-18.92456506 20.21186432 -19.04945145 21.8282913 -18.4375 25.5 C-16.9375 28 -16.9375 28 -14.4375 29.5 C-10.7657913 30.11195145 -9.14936432 29.98706506 -6.0625 27.875 C-3.95043494 24.78813568 -3.82554855 23.1717087 -4.4375 19.5 C-5.9375 17 -5.9375 17 -8.4375 15.5 C-12.1092087 14.88804855 -13.72563568 15.01293494 -16.8125 17.125 Z " fill="#0159DD" transform="translate(131.4375,121.5)"/>
<path d="M0 0 C0.87269531 -0.0038269 1.74539062 -0.00765381 2.64453125 -0.01159668 C4.48699092 -0.0143149 6.32948924 -0.00695994 8.171875 0.00976562 C10.99045934 0.03117752 13.80649485 0.00996199 16.625 -0.015625 C18.41667229 -0.01298171 20.20834299 -0.00785669 22 0 C22.84175781 -0.00809692 23.68351562 -0.01619385 24.55078125 -0.02453613 C30.38715618 0.06889601 30.38715618 0.06889601 33.52929688 2.43945312 C35.12144695 4.7039853 35.542797 5.7922417 35.5 8.53125 C35.5103125 9.19125 35.520625 9.85125 35.53125 10.53125 C34.74799158 13.4799876 33.36485285 14.63466544 31 16.53125 C27.984375 16.921875 27.984375 16.921875 24.75 16.78125 C23.67234375 16.74515625 22.5946875 16.7090625 21.484375 16.671875 C20.66453125 16.62546875 19.8446875 16.5790625 19 16.53125 C19.00888245 17.17382751 19.01776489 17.81640503 19.0269165 18.47845459 C19.11535648 25.16165275 19.17572054 31.8446849 19.21972656 38.52832031 C19.23985164 41.02318065 19.26715452 43.51799378 19.30175781 46.01269531 C19.35023457 49.59712368 19.3729602 53.18092885 19.390625 56.765625 C19.41127014 57.88241638 19.43191528 58.99920776 19.45318604 60.14984131 C19.45348816 61.19061829 19.45379028 62.23139526 19.45410156 63.30371094 C19.46298401 64.21860291 19.47186646 65.13349487 19.48101807 66.07611084 C18.84966041 69.29859042 17.51020199 70.48814391 15 72.53125 C13 73.0625 13 73.0625 11 73.03125 C10.34 73.0415625 9.68 73.051875 9 73.0625 C6.08992214 72.28951057 4.90592809 70.82783681 3 68.53125 C2.51898193 66.07611084 2.51898193 66.07611084 2.54589844 63.30371094 C2.54620056 62.26293396 2.54650269 61.22215698 2.54681396 60.14984131 C2.56745911 59.03304993 2.58810425 57.91625854 2.609375 56.765625 C2.61503479 55.61709045 2.62069458 54.46855591 2.62652588 53.28521729 C2.64891669 49.61680426 2.69912058 45.94936783 2.75 42.28125 C2.77006139 39.79428494 2.78831278 37.30730457 2.8046875 34.8203125 C2.84879045 28.72362511 2.91573051 22.62750733 3 16.53125 C2.18015625 16.57765625 1.3603125 16.6240625 0.515625 16.671875 C-1.10085937 16.72601563 -1.10085937 16.72601563 -2.75 16.78125 C-4.35101563 16.85085937 -4.35101563 16.85085937 -5.984375 16.921875 C-9.66843728 16.44466486 -10.7520782 15.41799857 -13 12.53125 C-13.53125 10.53125 -13.53125 10.53125 -13.5 8.53125 C-13.51546875 7.54125 -13.51546875 7.54125 -13.53125 6.53125 C-11.69061453 -0.39820116 -5.94975317 -0.05723107 0 0 Z " fill="#0159DC" transform="translate(149,95.46875)"/>
<path d="M0 0 C0.66 -0.0103125 1.32 -0.020625 2 -0.03125 C4.94491245 0.75099237 6.095818 2.14551704 8 4.5 C8.50793457 7.38378906 8.50793457 7.38378906 8.51757812 10.765625 C8.53018677 12.03374023 8.54279541 13.30185547 8.55578613 14.60839844 C8.5486263 15.98893795 8.54042231 17.36947239 8.53125 18.75 C8.53394562 20.16959906 8.53782863 21.58919631 8.54284668 23.00878906 C8.54873858 25.98129894 8.54018954 28.95332741 8.52148438 31.92578125 C8.498694 35.73258787 8.51181888 39.53826649 8.53577423 43.34503174 C8.55024114 46.27563956 8.54562235 49.20598074 8.53526306 52.13659668 C8.53259819 53.53999974 8.53585717 54.94342715 8.54518127 56.34680176 C8.55535941 58.30932135 8.5370904 60.27192602 8.51757812 62.234375 C8.51280457 63.90838379 8.51280457 63.90838379 8.50793457 65.61621094 C7.88691177 69.14205633 6.78107437 70.31835804 4 72.5 C2 73.03125 2 73.03125 0 73 C-0.66 73.0103125 -1.32 73.020625 -2 73.03125 C-4.94491245 72.24900763 -6.095818 70.85448296 -8 68.5 C-8.50793457 65.61621094 -8.50793457 65.61621094 -8.51757812 62.234375 C-8.53018677 60.96625977 -8.54279541 59.69814453 -8.55578613 58.39160156 C-8.5486263 57.01106205 -8.54042231 55.63052761 -8.53125 54.25 C-8.53394562 52.83040094 -8.53782863 51.41080369 -8.54284668 49.99121094 C-8.54873858 47.01870106 -8.54018954 44.04667259 -8.52148438 41.07421875 C-8.498694 37.26741213 -8.51181888 33.46173351 -8.53577423 29.65496826 C-8.55024114 26.72436044 -8.54562235 23.79401926 -8.53526306 20.86340332 C-8.53259819 19.46000026 -8.53585717 18.05657285 -8.54518127 16.65319824 C-8.55535941 14.69067865 -8.5370904 12.72807398 -8.51757812 10.765625 C-8.51439575 9.64961914 -8.51121338 8.53361328 -8.50793457 7.38378906 C-7.67108535 2.63259319 -4.87921549 -0.07623774 0 0 Z " fill="#0159DC" transform="translate(80,95.5)"/>
</svg>
