<?xml version="1.0" encoding="UTF-8"?>
<svg version="1.1" xmlns="http://www.w3.org/2000/svg" width="256" height="256">
<path d="M0 0 C13.07676653 11.09474791 25.57182515 23.37355122 36 37 C36.94166016 38.12341797 36.94166016 38.12341797 37.90234375 39.26953125 C38.75505859 40.31173828 38.75505859 40.31173828 39.625 41.375 C40.11226562 41.96023437 40.59953125 42.54546875 41.1015625 43.1484375 C42 45 42 45 41.91796875 47.3515625 C38.19649565 58.08840828 26.78588784 67.90545013 19 76 C18.39913574 76.63341309 17.79827148 77.26682617 17.17919922 77.91943359 C-9.23103157 105.6722127 -43.97041558 129.14535686 -83.45141602 130.28344727 C-124.06404935 130.79676679 -157.75927336 108.36769254 -186.0234375 81.140625 C-194.79157233 72.59120315 -202.69022833 63.81560814 -210 54 C-210.77730469 53.14921875 -211.55460938 52.2984375 -212.35546875 51.421875 C-214 49 -214 49 -214.01953125 46.5625 C-209.73399585 35.79119264 -198.95337144 26.26867315 -191 18 C-190.39913574 17.36658691 -189.79827148 16.73317383 -189.17919922 16.08056641 C-134.32443704 -41.56270487 -62.53262836 -52.72965857 0 0 Z M-156 8 C-156.98613281 8.78375 -157.97226563 9.5675 -158.98828125 10.375 C-165.82396911 15.90609344 -172.13578293 21.93356129 -178.375 28.125 C-179.12410645 28.86484131 -179.87321289 29.60468262 -180.64501953 30.36694336 C-184.29195906 34.03460876 -187.82082318 37.79464991 -191.1640625 41.7421875 C-191.75912598 42.43940918 -192.35418945 43.13663086 -192.96728516 43.85498047 C-194.288207 46.01176256 -194.288207 46.01176256 -193.35229492 48.55908203 C-192.11398362 50.7942574 -190.95023204 52.46854545 -189.19921875 54.3125 C-188.36197266 55.20340332 -188.36197266 55.20340332 -187.5078125 56.11230469 C-186.90710938 56.73524414 -186.30640625 57.35818359 -185.6875 58 C-185.06230469 58.65645508 -184.43710938 59.31291016 -183.79296875 59.98925781 C-181.86985689 62.00057692 -179.93529519 64.00041094 -178 66 C-177.43748535 66.58974609 -176.8749707 67.17949219 -176.29541016 67.78710938 C-153.48532214 91.69059624 -122.34777553 113.17173546 -88.27905273 114.28344727 C-61.34239338 114.66913641 -36.55336638 102.78288675 -16 86 C-15.01386719 85.21625 -14.02773437 84.4325 -13.01171875 83.625 C-6.17603089 78.09390656 0.13578293 72.06643871 6.375 65.875 C7.12410645 65.13515869 7.87321289 64.39531738 8.64501953 63.63305664 C12.29195906 59.96539124 15.82082318 56.20535009 19.1640625 52.2578125 C19.75912598 51.56059082 20.35418945 50.86336914 20.96728516 50.14501953 C22.288207 47.98823744 22.288207 47.98823744 21.35229492 45.44091797 C20.11398362 43.2057426 18.95023204 41.53145455 17.19921875 39.6875 C16.64105469 39.09356445 16.08289063 38.49962891 15.5078125 37.88769531 C14.60675781 36.95328613 14.60675781 36.95328613 13.6875 36 C13.06230469 35.34354492 12.43710938 34.68708984 11.79296875 34.01074219 C9.86985689 31.99942308 7.93529519 29.99958906 6 28 C5.43748535 27.41025391 4.8749707 26.82050781 4.29541016 26.21289062 C-18.51467786 2.30940376 -49.65222447 -19.17173546 -83.72094727 -20.28344727 C-110.65760662 -20.66913641 -135.44663362 -8.78288675 -156 8 Z " fill="#0159DD" transform="translate(214,81)"/>
<path d="M0 0 C11.03742991 8.07824223 18.38185809 19.85909689 21.05078125 33.2578125 C23.27808308 49.6119824 19.6839571 64.14926507 9.97265625 77.41796875 C1.19373855 87.91629783 -11.00155216 94.51336851 -24.52734375 96.35546875 C-41.10216638 97.39892005 -55.25198903 93.50019451 -68.0703125 82.78125 C-78.85229556 72.13639868 -84.56855817 58.86742299 -84.77734375 43.73046875 C-84.6311011 28.29374492 -78.99193652 15.59954701 -68.52734375 4.35546875 C-49.2736215 -13.34865815 -21.4039762 -13.92747138 0 0 Z M-61.58984375 21.60546875 C-67.63667406 30.18806661 -69.44000355 38.99115401 -68.52734375 49.35546875 C-65.77462271 60.3806157 -59.82448795 68.80520806 -50.52734375 75.35546875 C-41.42594071 79.96336041 -32.6892297 82.14362397 -22.5078125 79.6015625 C-12.41063633 76.07929174 -3.43834736 69.95557506 1.57421875 60.21484375 C6.08975825 50.40410326 6.91582135 41.09776298 3.453125 30.7421875 C0.93401837 24.61001956 -2.59613807 19.79355387 -7.52734375 15.35546875 C-8.26984375 14.67484375 -9.01234375 13.99421875 -9.77734375 13.29296875 C-27.81701652 0.5831993 -47.44414731 6.1737999 -61.58984375 21.60546875 Z " fill="#0159DD" transform="translate(159.52734375,84.64453125)"/>
<path d="M0 0 C5.21124298 4.67420649 8.48207214 9.20711202 9.24609375 16.27734375 C9.60640803 23.36352466 8.19384886 29.37925055 3.421875 34.7890625 C-2.41861154 40.12968758 -8.51266616 42.63308664 -16.4453125 42.34375 C-22.48913814 41.53051352 -27.25377344 39.19445712 -31.375 34.6875 C-35.66685278 29.06040414 -37.65797582 23.70011376 -37.41015625 16.62109375 C-36.28137283 9.4076302 -32.51626692 3.50350534 -26.7421875 -0.8828125 C-18.509081 -6.16233819 -7.98469185 -5.29355496 0 0 Z M-18.8125 14.125 C-21.30339948 16.81259963 -21.30339948 16.81259963 -21.0625 20.125 C-20.18706667 23.01645649 -20.18706667 23.01645649 -18.3125 24.9375 C-15.10056066 26.41325591 -13.33525198 26.06444212 -10 25 C-7.9214392 23.42304368 -7.9214392 23.42304368 -7 21 C-7.07222995 17.46073241 -7.32805009 15.6951206 -9.8125 13.125 C-13.60255582 11.17582844 -15.48904611 11.61394595 -18.8125 14.125 Z " fill="#0159DD" transform="translate(142,109)"/>
<path d="M0 0 C4.95 0 9.9 0 15 0 C15 15.18 15 30.36 15 46 C0.15 46 -14.7 46 -30 46 C-30 40.72 -30 35.44 -30 30 C-20.1 30 -10.2 30 0 30 C0 20.1 0 10.2 0 0 Z " fill="#025ADD" transform="translate(241,195)"/>
<path d="M0 0 C4.95 0 9.9 0 15 0 C15 9.9 15 19.8 15 30 C24.9 30 34.8 30 45 30 C45 35.28 45 40.56 45 46 C30.15 46 15.3 46 0 46 C0 30.82 0 15.64 0 0 Z " fill="#025ADD" transform="translate(0,195)"/>
<path d="M0 0 C14.85 0 29.7 0 45 0 C45 15.18 45 30.36 45 46 C40.05 46 35.1 46 30 46 C30 36.1 30 26.2 30 16 C20.1 16 10.2 16 0 16 C0 10.72 0 5.44 0 0 Z " fill="#025ADD" transform="translate(211,15)"/>
<path d="M0 0 C14.85 0 29.7 0 45 0 C45 5.28 45 10.56 45 16 C35.1 16 25.2 16 15 16 C15 25.9 15 35.8 15 46 C10.05 46 5.1 46 0 46 C0 30.82 0 15.64 0 0 Z " fill="#025ADD" transform="translate(0,15)"/>
</svg>
