<?xml version="1.0" encoding="UTF-8"?>
<svg version="1.1" xmlns="http://www.w3.org/2000/svg" width="256" height="256">
<path d="M0 0 C1.03395698 -0.00913666 1.03395698 -0.00913666 2.08880198 -0.01845789 C4.39804281 -0.03510399 6.7067332 -0.03030998 9.01602173 -0.0255127 C10.67188592 -0.03285216 12.32774499 -0.04143804 13.9835968 -0.05117798 C18.48159845 -0.07341682 22.97941703 -0.07632344 27.47746611 -0.07443047 C31.23244883 -0.07431086 34.98739262 -0.08287095 38.74236453 -0.09120798 C47.60167635 -0.11045097 56.46089395 -0.11332278 65.32022095 -0.10656738 C74.45892986 -0.09992713 83.5972351 -0.12278819 92.73586214 -0.15988111 C100.5822798 -0.1905732 108.42856759 -0.20193864 116.27504408 -0.1980443 C120.96123064 -0.19597611 125.64710317 -0.20146652 130.33323288 -0.22593689 C134.74108857 -0.24819317 139.14828799 -0.2463358 143.55614662 -0.22600937 C145.17264248 -0.22259719 146.78918242 -0.22769745 148.40561867 -0.24199295 C150.61549647 -0.26018602 152.82314796 -0.24744013 155.03295898 -0.22705078 C156.26849707 -0.22776329 157.50403515 -0.2284758 158.77701378 -0.2292099 C163.29436132 0.60760771 164.93077043 2.14420949 168.14346313 5.39440918 C169.28263531 8.81192571 169.25684794 11.42928855 169.24111938 15.03112793 C169.23789673 16.3298584 169.23467407 17.62858887 169.23135376 18.9666748 C169.22299845 20.33842026 169.2145335 21.71016505 169.20596313 23.08190918 C169.20094649 24.46537113 169.19638387 25.84883481 169.19229126 27.2322998 C169.18048843 30.61971313 169.16402332 34.00703951 169.14346313 37.39440918 C170.42221313 37.35315918 171.70096313 37.31190918 173.01846313 37.26940918 C175.19815063 37.19909668 175.19815063 37.19909668 177.14346313 37.39440918 C179.14346313 39.39440918 179.14346313 39.39440918 179.33096313 41.95690918 C179.14346313 44.39440918 179.14346313 44.39440918 178.14346313 45.39440918 C175.17346313 45.39440918 172.20346313 45.39440918 169.14346313 45.39440918 C169.14346313 83.01440918 169.14346313 120.63440918 169.14346313 159.39440918 C178.05346313 159.39440918 186.96346313 159.39440918 196.14346313 159.39440918 C196.05806294 145.23429293 195.9643658 131.07429902 195.85593605 116.91434002 C195.80592568 110.33976552 195.75959605 103.76520747 195.72158813 97.19055176 C195.68479528 90.84924375 195.63845168 84.50807176 195.58539963 78.16687965 C195.56682374 75.74392895 195.55172769 73.32094905 195.54011917 70.89795494 C195.52331144 67.51210892 195.49428946 64.12657659 195.46231079 60.74084473 C195.4601506 59.73240005 195.45799042 58.72395538 195.45576477 57.68495178 C195.44460129 56.763685 195.43343781 55.84241821 195.42193604 54.89323425 C195.41640528 54.09219615 195.41087452 53.29115805 195.40517616 52.46584606 C195.26116565 50.08776374 195.26116565 50.08776374 193.14346313 47.39440918 C191.38002563 46.71378418 191.38002563 46.71378418 189.58096313 46.01940918 C186.14346313 44.39440918 186.14346313 44.39440918 185.08096313 41.83190918 C185.14346313 39.39440918 185.14346313 39.39440918 187.14346313 37.39440918 C193.19708535 36.68221833 196.3306935 37.96993848 201.14346313 41.39440918 C204.06957833 45.28902093 204.52097971 48.13203294 204.53114319 52.95359802 C204.5392215 53.92145803 204.5392215 53.92145803 204.547463 54.90887076 C204.56172856 57.06301911 204.55464277 59.21655173 204.54751587 61.37072754 C204.55322021 62.91836541 204.56018471 64.46599907 204.5683136 66.0136261 C204.58625334 70.21200679 204.58507511 74.41017857 204.57937121 78.60858607 C204.5762805 82.11508487 204.58237052 85.62154348 204.58840996 89.12803656 C204.60245629 97.40102486 204.60089305 105.67390991 204.58950806 113.94689941 C204.57802673 122.47835413 204.59210241 131.0094945 204.61890453 139.5409078 C204.64106427 146.86930203 204.6476983 154.19759761 204.64182812 161.52602297 C204.63845798 165.90139166 204.64087733 170.27655885 204.65807915 174.65189934 C204.67355063 178.76669483 204.66959078 182.88102481 204.650774 186.99580193 C204.64708864 188.50425121 204.65019514 190.01273501 204.66065979 191.5211525 C204.67387639 193.58404899 204.66231936 195.6454058 204.64466858 197.70823669 C204.6444593 198.86135818 204.64425001 200.01447966 204.64403439 201.20254421 C203.90574352 205.91021518 201.637839 209.04013105 198.14346313 212.20690918 C193.73599313 214.8238445 189.15884448 214.53181211 184.16201782 214.50793457 C183.36164093 214.5080806 182.56126404 214.50822662 181.7366333 214.50837708 C179.09617383 214.50768148 176.45578526 214.49990558 173.81533813 214.49206543 C171.9825952 214.4902 170.14985177 214.48877668 168.31710815 214.48777771 C163.49696472 214.4839624 158.67685149 214.47414051 153.85671997 214.46307373 C148.93668018 214.45283843 144.01663551 214.44827555 139.09658813 214.4432373 C129.44553107 214.43251737 119.79450434 214.41492853 110.14346313 214.39440918 C110.14346313 220.66440918 110.14346313 226.93440918 110.14346313 233.39440918 C112.45346313 233.72440918 114.76346313 234.05440918 117.14346313 234.39440918 C122.21343799 236.61908741 125.2737747 240.26852833 127.49502563 245.26159668 C128.56478094 248.78018944 128.46422338 251.73774239 128.14346313 255.39440918 C126.22420072 257.31367159 123.36513294 256.52120249 120.8109436 256.52993774 C119.89973755 256.52791351 118.98853149 256.52588928 118.04971313 256.52380371 C117.09532349 256.52555603 116.14093384 256.52730835 115.15762329 256.52911377 C111.98621836 256.53353405 108.81486868 256.53059368 105.64346313 256.52722168 C103.45010365 256.52789467 101.25674424 256.52886465 99.06338501 256.53012085 C94.45986218 256.53159806 89.85635872 256.52944252 85.25283813 256.52478027 C79.33741718 256.51908298 73.4220416 256.52236186 67.50662231 256.52835274 C62.97549088 256.53195772 58.44437028 256.53082005 53.91323853 256.52822495 C51.73143509 256.5275555 49.54963068 256.5283847 47.36782837 256.5307045 C44.32426324 256.53323 41.28077268 256.52939188 38.23721313 256.52380371 C37.32600708 256.52582794 36.41480103 256.52785217 35.47598267 256.52993774 C29.25772543 256.50867147 29.25772543 256.50867147 28.14346313 255.39440918 C27.59172291 249.10457061 28.38550064 244.56713403 32.14346313 239.39440918 C36.68150277 234.85636955 39.47753713 234.34668432 46.14346313 233.39440918 C46.14346313 227.12440918 46.14346313 220.85440918 46.14346313 214.39440918 C43.27916626 214.4176123 40.41486938 214.44081543 37.46377563 214.46472168 C34.69701582 214.4803084 31.93026085 214.49245872 29.16348267 214.50427246 C27.23702819 214.514345 25.31058906 214.52800361 23.38418579 214.54528809 C20.61901062 214.56948159 17.85403714 214.58087954 15.08877563 214.58972168 C14.22414703 214.60004425 13.35951843 214.61036682 12.46868896 214.6210022 C10.35892793 214.62140024 8.24965595 214.51706161 6.14346313 214.39440918 C4.14346313 212.39440918 4.14346313 212.39440918 4.01846313 209.26940918 C4.05971313 208.32065918 4.10096313 207.37190918 4.14346313 206.39440918 C7.12155717 204.90536216 10.15970038 205.25512288 13.42506409 205.2631073 C14.18419698 205.26099159 14.94332987 205.25887587 15.72546679 205.25669605 C18.28270056 205.25067915 20.83988523 205.25169739 23.39712524 205.25256348 C25.22504256 205.24953315 27.05295913 205.24601205 28.88087463 205.24203491 C32.82380699 205.2341366 36.76673025 205.22899753 40.70966911 205.22574425 C46.94019735 205.21984524 53.17066813 205.20331614 59.40116882 205.18440247 C61.53206917 205.17806489 63.66296955 205.17173927 65.79386997 205.1654253 C67.39472515 205.16067658 67.39472515 205.16067658 69.02792084 205.15583193 C83.53834861 205.11370832 98.04874978 205.0807666 112.55923462 205.06848145 C122.34036361 205.06011513 132.12135067 205.03767809 141.90240866 204.99912578 C147.08198374 204.97931749 152.26134644 204.96697631 157.44096184 204.97196007 C162.31082215 204.97658868 167.18027937 204.96289953 172.05005836 204.93494797 C173.84033765 204.92800608 175.63065835 204.92794161 177.42093658 204.93514824 C179.8594029 204.94397502 182.29652214 204.92844516 184.73487854 204.90666199 C185.44849216 204.91510452 186.16210578 204.92354706 186.89734405 204.93224543 C189.10039414 204.94061978 189.10039414 204.94061978 192.14346313 204.39440918 C199.38777125 194.7353317 195.76633952 180.46236491 196.14346313 168.39440918 C118.26346313 168.39440918 40.38346313 168.39440918 -39.85653687 168.39440918 C-41.29012911 187.59884831 -41.29012911 187.59884831 -35.85653687 204.39440918 C-32.89572793 205.00669919 -32.89572793 205.00669919 -29.50888062 204.93347168 C-28.26429077 204.9566748 -27.01970093 204.97987793 -25.73739624 205.00378418 C-24.43608765 205.00894043 -23.13477905 205.01409668 -21.79403687 205.01940918 C-19.21972107 205.04483452 -16.64546781 205.07827039 -14.07138062 205.12097168 C-12.92790161 205.12693359 -11.78442261 205.13289551 -10.60629272 205.13903809 C-7.85653687 205.39440918 -7.85653687 205.39440918 -5.85653687 207.39440918 C-5.54403687 209.89440918 -5.54403687 209.89440918 -5.85653687 212.39440918 C-10.77865882 215.67582382 -16.32335378 214.7220484 -22.10653687 214.70690918 C-23.3221228 214.72302246 -24.53770874 214.73913574 -25.79013062 214.7557373 C-32.21294262 214.75923938 -37.25825894 214.68751384 -42.85653687 211.39440918 C-47.06272957 206.85614863 -47.9811406 204.29796912 -48.00370789 198.19598389 C-48.00922292 197.2319688 -48.00922292 197.2319688 -48.01484936 196.24847865 C-48.02590224 194.08520011 -48.02973275 191.92196957 -48.03353882 189.75866699 C-48.0398023 188.21147508 -48.046449 186.66428469 -48.05345154 185.11709595 C-48.07087281 180.90620725 -48.08141653 176.69532992 -48.08965707 172.4844141 C-48.09480523 169.85411697 -48.10088107 167.22382338 -48.1071682 164.59352875 C-48.12622411 156.36557278 -48.14045394 148.1376258 -48.14878017 139.90965199 C-48.15855267 130.40898176 -48.18487078 120.9085445 -48.22528106 111.40795636 C-48.25543515 104.06690435 -48.2702484 96.72591914 -48.27356118 89.38480639 C-48.27591264 84.99930414 -48.28488515 80.61405067 -48.31002235 76.22861481 C-48.33329561 72.10158736 -48.33753946 67.97497262 -48.32726097 63.84789658 C-48.3267653 62.3345973 -48.33309502 60.82127776 -48.34681702 59.30804062 C-48.36453114 57.23845667 -48.35743436 55.1703546 -48.34428406 53.10076904 C-48.34667241 51.94375111 -48.34906076 50.78673317 -48.35152149 49.59465408 C-47.59115283 44.67861063 -45.32019323 41.49561436 -41.37997437 38.53112793 C-36.08823814 36.823927 -31.00093267 37.0801386 -25.48153687 37.20690918 C-23.80511108 37.22721191 -23.80511108 37.22721191 -22.09481812 37.2479248 C-19.34822476 37.28313754 -16.60263398 37.33238822 -13.85653687 37.39440918 C-13.87224731 36.54209717 -13.88795776 35.68978516 -13.90414429 34.81164551 C-13.95542648 31.63409692 -13.99296169 28.45676005 -14.02133179 25.27893066 C-14.03637119 23.90646401 -14.05680819 22.53404504 -14.08285522 21.16174316 C-14.11944908 19.18352262 -14.13470384 17.20494404 -14.14950562 15.22644043 C-14.16521606 14.03768311 -14.18092651 12.84892578 -14.19711304 11.62414551 C-13.73701692 7.26098307 -12.31397446 4.79712532 -9.17683983 1.77777863 C-6.01023598 -0.11015717 -3.67791563 0.01110631 0 0 Z M-4.85653687 9.39440918 C-4.85653687 24.57440918 -4.85653687 39.75440918 -4.85653687 55.39440918 C1.41346313 55.72440918 7.68346313 56.05440918 14.14346313 56.39440918 C15.14346313 61.39440918 15.14346313 61.39440918 15.14346313 63.39440918 C8.54346313 63.72440918 1.94346313 64.05440918 -4.85653687 64.39440918 C-4.85653687 95.74440918 -4.85653687 127.09440918 -4.85653687 159.39440918 C49.59346313 159.39440918 104.04346313 159.39440918 160.14346313 159.39440918 C160.14346313 128.04440918 160.14346313 96.69440918 160.14346313 64.39440918 C150.78229126 64.33382324 141.42111938 64.2732373 131.77627563 64.21081543 C125.86090662 64.17034097 119.94554106 64.12961853 114.03018188 64.08776855 C104.63224949 64.02132656 95.23431777 63.95592382 85.83633423 63.89709473 C78.99283589 63.85425144 72.149371 63.80797309 65.3059243 63.75753063 C61.68075794 63.73093084 58.05559821 63.70607781 54.43039322 63.68533516 C50.3882478 63.66214261 46.34619648 63.63128268 42.30410767 63.59973145 C41.09570221 63.59397598 39.88729675 63.58822052 38.64227295 63.58229065 C37.54568359 63.57250183 36.44909424 63.56271301 35.3192749 63.55262756 C34.36245378 63.54617501 33.40563267 63.53972246 32.41981697 63.53307438 C30.14346313 63.39440918 30.14346313 63.39440918 28.14346313 62.39440918 C28.10074213 60.72829013 28.10282481 59.06058033 28.14346313 57.39440918 C29.82816592 55.70970639 31.92600925 56.25164144 34.23698425 56.2361908 C35.89242752 56.22150757 35.89242752 56.22150757 37.58131409 56.20652771 C39.41334129 56.19789452 39.41334129 56.19789452 41.28237915 56.18908691 C42.56024292 56.17918732 43.83810669 56.16928772 45.1546936 56.15908813 C48.6689649 56.13197588 52.18324971 56.11100067 55.69756818 56.09108615 C59.36648367 56.06926544 63.03535721 56.04185766 66.70423889 56.01502991 C73.65633705 55.96504991 80.60845843 55.92013085 87.56060213 55.87700754 C95.47344074 55.82768042 103.38623726 55.77274557 111.29903519 55.71732795 C127.58047383 55.60342646 143.86195092 55.4973457 160.14346313 55.39440918 C160.14346313 40.21440918 160.14346313 25.03440918 160.14346313 9.39440918 C157.3187424 7.98204881 154.96449825 8.26843287 151.80422974 8.26742554 C150.81760526 8.26508555 150.81760526 8.26508555 149.81104898 8.26269829 C147.59696143 8.25869509 145.38294188 8.26187531 143.16885376 8.26501465 C141.58561666 8.26366031 140.00237987 8.26188019 138.41914368 8.25970459 C134.11140614 8.25513418 129.80369248 8.25691822 125.49595451 8.26008368 C120.99519662 8.26260929 116.49444083 8.26026917 111.99368286 8.25869751 C104.43439363 8.25687641 96.87511416 8.25928058 89.31582642 8.26403809 C80.56690708 8.26948059 71.81801104 8.26771789 63.06909227 8.26221168 C55.56759456 8.25767887 48.06610388 8.25703083 40.56460524 8.25965035 C36.07984504 8.2612122 31.5950958 8.2614094 27.1103363 8.25811386 C22.89478778 8.25523272 18.67926939 8.25721534 14.46372414 8.26300812 C12.9132829 8.26433441 11.36283915 8.26394381 9.81239891 8.26174545 C7.70246345 8.25902882 5.5926257 8.2624214 3.48269653 8.26742554 C2.29986839 8.26780256 1.11704025 8.26817959 -0.10163116 8.26856804 C-2.81772134 8.20586232 -2.81772134 8.20586232 -4.85653687 9.39440918 Z M-38.85653687 48.39440918 C-40.03524458 50.7518246 -39.97981224 52.14483316 -39.97679138 54.77297974 C-39.97816605 55.69287186 -39.97954071 56.61276398 -39.98095703 57.56053162 C-39.97736176 58.57257156 -39.97376648 59.58461151 -39.97006226 60.62731934 C-39.97020828 61.69075058 -39.97035431 62.75418182 -39.97050476 63.84983826 C-39.96980605 67.37773655 -39.96201557 70.90558257 -39.95419312 74.43347168 C-39.95232879 76.87441987 -39.95090495 79.31536844 -39.9499054 81.75631714 C-39.94608138 88.19088773 -39.93625206 94.62543586 -39.92520142 101.05999756 C-39.91498482 107.62198584 -39.91040724 114.18397774 -39.90536499 120.74597168 C-39.89462971 133.62879565 -39.87703382 146.51159704 -39.85653687 159.39440918 C-31.27653687 159.39440918 -22.69653687 159.39440918 -13.85653687 159.39440918 C-13.85653687 121.77440918 -13.85653687 84.15440918 -13.85653687 45.39440918 C-31.97005243 43.67942333 -31.97005243 43.67942333 -38.85653687 48.39440918 Z M55.14346313 214.39440918 C55.14346313 220.66440918 55.14346313 226.93440918 55.14346313 233.39440918 C70.32346313 233.39440918 85.50346313 233.39440918 101.14346313 233.39440918 C101.14346313 227.12440918 101.14346313 220.85440918 101.14346313 214.39440918 C85.96346313 214.39440918 70.78346313 214.39440918 55.14346313 214.39440918 Z M40.14346313 244.39440918 C39.48346313 245.71440918 38.82346313 247.03440918 38.14346313 248.39440918 C64.54346313 248.39440918 90.94346313 248.39440918 118.14346313 248.39440918 C115.84335817 243.79419925 114.80304746 243.20528914 110.14346313 241.39440918 C107.00075766 240.94671776 107.00075766 240.94671776 103.68252563 241.00622559 C102.42101685 240.9967691 101.15950806 240.98731262 99.85977173 240.97756958 C98.49599898 240.9829398 97.13222911 240.98909288 95.76846313 240.99597168 C94.35651499 240.99394829 92.94456787 240.99103465 91.53262329 240.98727417 C88.58053591 240.98286322 85.62872176 240.98924185 82.67666626 241.0032959 C78.90391284 241.02038744 75.13179979 241.01053959 71.35906982 240.99257851 C68.44557929 240.98170716 65.5322391 240.98520226 62.6187439 240.99296188 C61.2281588 240.99495465 59.8375598 240.99253722 58.44699097 240.98552322 C56.49946373 240.97785432 54.55188826 240.99162689 52.60440063 241.00622559 C50.94610229 241.00980576 50.94610229 241.00980576 49.25430298 241.01345825 C45.60744797 241.46004916 43.24158095 242.42962961 40.14346313 244.39440918 Z " fill="#0159DC" transform="translate(49.856536865234375,-0.3944091796875)"/>
<path d="M0 0 C9.87460788 -0.04627591 19.7491901 -0.08184499 29.6238842 -0.10362434 C34.20876766 -0.11407566 38.79357711 -0.12825935 43.37841797 -0.15087891 C47.80042374 -0.17255936 52.22235819 -0.18455846 56.64441299 -0.18975449 C58.33417001 -0.19345889 60.02392298 -0.20069237 61.71364975 -0.21146011 C64.07464889 -0.22591143 66.4353507 -0.22798064 68.79638672 -0.22705078 C69.49985229 -0.23424133 70.20331787 -0.24143188 70.92810059 -0.24884033 C75.77189568 -0.22810432 75.77189568 -0.22810432 78 2 C78.25396729 5.03637695 78.25396729 5.03637695 78.25878906 8.98828125 C78.2622937 9.70712494 78.26579834 10.42596863 78.26940918 11.16659546 C78.27822965 13.54866116 78.27237636 15.93043115 78.265625 18.3125 C78.26697156 19.96394915 78.26891202 21.61539791 78.27142334 23.2668457 C78.27437503 26.73034433 78.27007557 30.1937399 78.26074219 33.65722656 C78.24934758 38.10295311 78.25590682 42.5484382 78.26788712 46.99415588 C78.27510454 50.40500721 78.27281834 53.81580102 78.26763153 57.22665405 C78.26629471 58.86616036 78.2679439 60.50567185 78.27259064 62.14517212 C78.277654 64.43416226 78.26994862 66.72275808 78.25878906 69.01171875 C78.25719788 70.31584717 78.25560669 71.61997559 78.25396729 72.96362305 C78 76 78 76 76 78 C73.60181631 78.19811083 71.31912639 78.27284618 68.91992188 78.25878906 C68.19132462 78.2622937 67.46272736 78.26579834 66.71205139 78.26940918 C64.2975214 78.27823008 61.8832831 78.2723762 59.46875 78.265625 C57.79488061 78.26697155 56.1210116 78.268912 54.44714355 78.27142334 C50.93656699 78.27437508 47.4260921 78.27007538 43.91552734 78.26074219 C39.40926776 78.24934759 34.90324639 78.25590679 30.39699554 78.26788712 C26.93982133 78.27510438 23.48270385 78.27281841 20.02552795 78.26763153 C18.36369295 78.26629466 16.70185285 78.26794405 15.0400238 78.27259064 C12.71990253 78.27765373 10.40017033 78.26994898 8.08007812 78.25878906 C7.38910538 78.26283752 6.69813263 78.26688599 5.98622131 78.27105713 C1.22852925 78.22852925 1.22852925 78.22852925 -1 76 C-1.24723816 72.96362305 -1.24723816 72.96362305 -1.24291992 69.01171875 C-1.24481827 68.29287506 -1.24671661 67.57403137 -1.24867249 66.83340454 C-1.25238472 64.45132629 -1.24166979 62.06955127 -1.23046875 59.6875 C-1.22927707 58.0360518 -1.22882376 56.38460291 -1.2290802 54.7331543 C-1.22751456 51.26965094 -1.21921884 47.80625082 -1.20581055 44.34277344 C-1.18882059 39.89710203 -1.18499617 35.45154418 -1.18575573 31.00584412 C-1.18548415 27.59500031 -1.18000482 24.18418146 -1.17275429 20.77334595 C-1.16956599 19.13384185 -1.16759984 17.49433491 -1.16686058 15.85482788 C-1.16469872 13.56592973 -1.15595784 11.27715335 -1.14526367 8.98828125 C-1.14145187 7.68415283 -1.13764008 6.38002441 -1.13371277 5.03637695 C-1 2 -1 2 0 0 Z M8 8 C8 18.89 8 29.78 8 41 C12.62 41 17.24 41 22 41 C25.35433006 42.20155107 27.20898521 43.03274103 30 45 C30.94230469 45.66386719 31.88460937 46.32773438 32.85546875 47.01171875 C34.810322 48.42032581 36.75274262 49.8464182 38.6796875 51.29296875 C42.64502187 54.21022653 45.04154197 54.47985078 50 54 C51.89722539 52.9662856 51.89722539 52.9662856 53.75 51.625 C58 49 58 49 69 47 C69 34.13 69 21.26 69 8 C48.87 8 28.74 8 8 8 Z M8 51 C8 57.27 8 63.54 8 70 C28.13 70 48.26 70 69 70 C69 65.38 69 60.76 69 56 C64.72870793 54.88699055 64.72870793 54.88699055 61.25 56.75 C53.59877768 60.8014775 47.7516223 63.27205579 39 61 C35.15284863 59.23672229 31.92984822 56.74111665 28.6328125 54.11328125 C23.35226784 50.05828356 19.85850154 48.22373427 13.12890625 48.55859375 C10.71309472 48.92099722 10.71309472 48.92099722 8 51 Z " fill="#0259DD" transform="translate(54,74)"/>
<path d="M0 0 C0.67982941 -0.00511093 1.35965881 -0.01022186 2.06008911 -0.01548767 C4.31228381 -0.02941341 6.56417357 -0.0284249 8.81640625 -0.02612305 C10.37817499 -0.03000801 11.93994268 -0.03434226 13.50170898 -0.03910828 C16.7768903 -0.04657664 20.05196382 -0.04627454 23.32714844 -0.04101562 C27.53082582 -0.03521647 31.73406325 -0.05215942 35.93766785 -0.0753603 C39.16323439 -0.09006817 42.3886942 -0.09097346 45.61428833 -0.08785057 C47.16448845 -0.08836515 48.71469433 -0.09362845 50.26486206 -0.10366249 C52.42947271 -0.11595479 54.59321646 -0.10928007 56.7578125 -0.09765625 C57.99088135 -0.09828568 59.2239502 -0.0989151 60.49438477 -0.0995636 C61.44627686 0.0239296 62.39816895 0.14742279 63.37890625 0.2746582 C65.37890625 3.2746582 65.37890625 3.2746582 65.19140625 5.3371582 C64.37890625 7.2746582 64.37890625 7.2746582 61.37890625 9.2746582 C58.49475098 9.52862549 58.49475098 9.52862549 54.93554688 9.53344727 C54.28643845 9.5369519 53.63733002 9.54045654 52.96855164 9.54406738 C50.82397756 9.55286628 48.67973366 9.54704224 46.53515625 9.5402832 C45.04447364 9.54163039 43.55379146 9.54357137 42.06311035 9.54608154 C38.93932918 9.5490303 35.81566241 9.54474319 32.69189453 9.53540039 C28.68684025 9.52400592 24.68205403 9.53056673 20.67700958 9.54254532 C17.59895812 9.54977065 14.52097025 9.54747291 11.44291687 9.54228973 C9.96612008 9.5409551 8.48931752 9.54259446 7.01252747 9.54724884 C4.94895114 9.55232521 2.88580956 9.54458866 0.82226562 9.53344727 C-0.93954041 9.53106049 -0.93954041 9.53106049 -2.73693848 9.52862549 C-5.62109375 9.2746582 -5.62109375 9.2746582 -8.62109375 7.2746582 C-8.93359375 4.7746582 -8.93359375 4.7746582 -8.62109375 2.2746582 C-5.7960027 -0.55043284 -3.95780772 0.01478844 0 0 Z " fill="#0159DD" transform="translate(109.62109375,19.725341796875)"/>
<path d="M0 0 C2.37890625 0.0078125 2.37890625 0.0078125 5 1 C7.02734375 3.5546875 7.02734375 3.5546875 8.9375 6.875 C9.44301392 7.74596313 9.44301392 7.74596313 9.95874023 8.63452148 C10.64900726 9.83095171 11.33170409 11.03178079 12.00683594 12.23681641 C12.94070976 13.89474087 13.91063547 15.53221031 14.8828125 17.16796875 C19.04799405 24.34564208 19.04799405 24.34564208 18.83984375 27.18359375 C18 29 18 29 15 31 C12.3203125 31.24291992 12.3203125 31.24291992 9.125 31.23046875 C7.97515625 31.22853516 6.8253125 31.22660156 5.640625 31.22460938 C3.83851562 31.20624023 3.83851562 31.20624023 2 31.1875 C0.79859375 31.18685547 -0.4028125 31.18621094 -1.640625 31.18554688 C-10.5786319 31.14045603 -10.5786319 31.14045603 -14 30 C-14.8465008 26.61647465 -15.24456072 24.62276679 -13.9519043 21.33105469 C-13.41476807 20.45352539 -12.87763184 19.57599609 -12.32421875 18.671875 C-11.74349609 17.70765625 -11.16277344 16.7434375 -10.56445312 15.75 C-9.94505859 14.76 -9.32566406 13.77 -8.6875 12.75 C-8.07970703 11.74453125 -7.47191406 10.7390625 -6.84570312 9.703125 C-2.38497741 2.38497741 -2.38497741 2.38497741 0 0 Z M1 14 C-0.32 16.64 -1.64 19.28 -3 22 C0.3 22 3.6 22 7 22 C6.195625 20.68 5.39125 19.36 4.5625 18 C3.88380859 16.88625 3.88380859 16.88625 3.19140625 15.75 C2.79824219 15.1725 2.40507813 14.595 2 14 C1.67 14 1.34 14 1 14 Z " fill="#015ADD" transform="translate(68,15)"/>
<path d="M0 0 C1.17461792 -0.00637985 2.34923584 -0.0127597 3.55944824 -0.01933289 C4.83340454 -0.02044571 6.10736084 -0.02155853 7.41992188 -0.02270508 C8.72191528 -0.02603348 10.02390869 -0.02936188 11.36535645 -0.03279114 C14.12264841 -0.03878196 16.87990902 -0.04063104 19.63720703 -0.04003906 C23.17492031 -0.03993733 26.7124334 -0.05360148 30.25009918 -0.07081127 C33.61921008 -0.08458345 36.98828314 -0.08401935 40.35742188 -0.08520508 C41.63137817 -0.09239059 42.90533447 -0.09957611 44.21789551 -0.10697937 C45.97982239 -0.10236443 45.97982239 -0.10236443 47.77734375 -0.09765625 C49.33382629 -0.09979378 49.33382629 -0.09979378 50.92175293 -0.10197449 C53.38867188 0.14526367 53.38867188 0.14526367 55.38867188 2.14526367 C55.63867188 4.64526367 55.63867188 4.64526367 55.38867188 7.14526367 C52.73729227 9.79664328 51.49501027 9.40343725 47.79321289 9.41992188 C46.62182266 9.42945389 45.45043243 9.4389859 44.24354553 9.44880676 C42.97272629 9.44789536 41.70190704 9.44698395 40.39257812 9.44604492 C39.09295639 9.45033005 37.79333466 9.45461517 36.45433044 9.45903015 C33.70120165 9.46649719 30.94820107 9.4661978 28.19506836 9.4609375 C24.66630026 9.45514397 21.13805723 9.47206791 17.60937595 9.49528217 C14.24542105 9.51355522 10.88158245 9.50983433 7.51757812 9.50854492 C5.6143856 9.52235954 5.6143856 9.52235954 3.67274475 9.53645325 C1.91093117 9.52711006 1.91093117 9.52711006 0.11352539 9.51757812 C-0.92190903 9.51820755 -1.95734344 9.51883698 -3.02415466 9.51948547 C-5.61132812 9.14526367 -5.61132812 9.14526367 -7.48085022 7.78605652 C-8.61132812 6.14526367 -8.61132812 6.14526367 -8.42382812 3.52026367 C-6.96286269 -0.75025068 -4.0392606 0.01483812 0 0 Z " fill="#0259DD" transform="translate(148.611328125,109.854736328125)"/>
<path d="M0 0 C1.1947142 -0.00637985 2.38942841 -0.0127597 3.62034607 -0.01933289 C4.92133743 -0.02044571 6.2223288 -0.02155853 7.56274414 -0.02270508 C8.90173886 -0.02591608 10.24073321 -0.02928003 11.57972717 -0.03279114 C14.39007379 -0.03878841 17.20038962 -0.04063043 20.01074219 -0.04003906 C23.61686399 -0.03993742 27.22278897 -0.05358878 30.8288641 -0.07081127 C33.59547334 -0.08191492 36.36203477 -0.08395878 39.12866402 -0.08342934 C41.10629354 -0.08518822 43.08390813 -0.09603985 45.06150818 -0.10697937 C46.25937454 -0.10390274 47.45724091 -0.10082611 48.69140625 -0.09765625 C50.27906044 -0.09979378 50.27906044 -0.09979378 51.89878845 -0.10197449 C54.41040039 0.14526367 54.41040039 0.14526367 56.41040039 2.14526367 C56.72290039 4.64526367 56.72290039 4.64526367 56.41040039 7.14526367 C53.03052739 9.39851234 51.861264 9.40156233 47.90087891 9.41992188 C46.7728334 9.42945389 45.6447879 9.4389859 44.4825592 9.44880676 C42.65439919 9.44743965 42.65439919 9.44743965 40.78930664 9.44604492 C39.53786362 9.45033005 38.28642059 9.45461517 36.99705505 9.45903015 C34.34815466 9.46477815 31.69964334 9.46620353 29.05078125 9.4609375 C25.66001549 9.45514427 22.26979624 9.47207087 18.87912083 9.49528217 C15.64085349 9.51357637 12.40261636 9.5098339 9.16430664 9.50854492 C7.94755753 9.51775467 6.73080841 9.52696442 5.47718811 9.53645325 C4.34599045 9.53022446 3.21479279 9.52399567 2.04931641 9.51757812 C1.05464859 9.51820755 0.05998077 9.51883698 -0.96482849 9.51948547 C-3.97384668 9.09048037 -5.35182532 8.15100165 -7.58959961 6.14526367 C-6.51782809 0.1739652 -6.06532809 0.0218598 0 0 Z " fill="#0159DD" transform="translate(147.589599609375,126.854736328125)"/>
<path d="M0 0 C1.62215675 0.00333092 1.62215675 0.00333092 3.27708435 0.00672913 C4.49827469 0.00680466 5.71946503 0.00688019 6.97766113 0.00695801 C8.32022644 0.0120654 9.66279134 0.01728141 11.00535583 0.02259827 C12.37156116 0.02446252 13.73776716 0.02588639 15.10397339 0.02688599 C18.70596654 0.03071058 22.30791959 0.04054035 25.90989685 0.05158997 C29.58298703 0.06180536 33.25608368 0.06638388 36.92918396 0.07142639 C44.14079081 0.08216268 51.35236459 0.09923838 58.56394958 0.12025452 C59.18894958 2.99525452 59.18894958 2.99525452 59.56394958 6.12025452 C56.8939519 8.79025221 55.59148003 8.3786267 51.86082458 8.39491272 C50.06886658 8.40921074 50.06886658 8.40921074 48.2407074 8.42379761 C46.94487732 8.4228862 45.64904724 8.42197479 44.31394958 8.42103577 C42.97638312 8.42492121 41.63881789 8.42925557 40.30125427 8.434021 C37.49685161 8.4414874 34.69257484 8.4411887 31.88816833 8.43592834 C28.2898038 8.43012913 24.69195322 8.44707285 21.09367371 8.47027302 C18.33133418 8.48498524 15.5691192 8.48588561 12.80674744 8.48276329 C10.8335392 8.48352817 8.86035032 8.49742042 6.88719177 8.51144409 C5.09523376 8.50210091 5.09523376 8.50210091 3.26707458 8.49256897 C1.6839447 8.49351311 1.6839447 8.49351311 0.0688324 8.49447632 C-0.75777893 8.37098312 -1.58439026 8.24748993 -2.43605042 8.12025452 C-4.43605042 5.12025452 -4.43605042 5.12025452 -4.12355042 2.99525452 C-3.11783273 0.2523881 -3.006541 0.14841652 0 0 Z " fill="#0159DD" transform="translate(144.43605041503906,93.87974548339844)"/>
<path d="M0 0 C1.1947142 -0.00637985 2.38942841 -0.0127597 3.62034607 -0.01933289 C4.92133743 -0.02044571 6.2223288 -0.02155853 7.56274414 -0.02270508 C8.90173886 -0.02591608 10.24073321 -0.02928003 11.57972717 -0.03279114 C14.39007379 -0.03878841 17.20038962 -0.04063043 20.01074219 -0.04003906 C23.61686399 -0.03993742 27.22278897 -0.05358878 30.8288641 -0.07081127 C33.59547334 -0.08191492 36.36203477 -0.08395878 39.12866402 -0.08342934 C41.10629354 -0.08518822 43.08390813 -0.09603985 45.06150818 -0.10697937 C46.25937454 -0.10390274 47.45724091 -0.10082611 48.69140625 -0.09765625 C50.27906044 -0.09979378 50.27906044 -0.09979378 51.89878845 -0.10197449 C54.41040039 0.14526367 54.41040039 0.14526367 56.41040039 2.14526367 C55.85484484 6.70081923 55.85484484 6.70081923 54.41040039 8.14526367 C52.54949463 8.24960986 50.68461763 8.28381004 48.82080078 8.29052734 C47.62608658 8.2969072 46.43137238 8.30328705 45.20045471 8.30986023 C43.89946335 8.31097305 42.59847198 8.31208588 41.25805664 8.31323242 C39.91906193 8.31644343 38.58006757 8.31980738 37.24107361 8.32331848 C34.43072699 8.32931576 31.62041116 8.33115778 28.81005859 8.33056641 C25.20393679 8.33046477 21.59801181 8.34411612 17.99193668 8.36133862 C15.22532744 8.37244226 12.45876601 8.37448612 9.69213676 8.37395668 C7.71450725 8.37571557 5.73689265 8.38656719 3.7592926 8.39750671 C2.56142624 8.39443008 1.36355988 8.39135345 0.12939453 8.38818359 C-1.45825966 8.39032112 -1.45825966 8.39032112 -3.07798767 8.39250183 C-5.58959961 8.14526367 -5.58959961 8.14526367 -7.58959961 6.14526367 C-6.85629136 0.13213606 -5.83183936 0.02101829 0 0 Z " fill="#0159DD" transform="translate(147.589599609375,76.854736328125)"/>
<path d="M0 0 C4.00869916 2.33233405 6.1499349 4.50115384 7.5625 8.875 C8.37373483 13.30752019 7.37338028 16.14325705 5 20 C1.77619792 22.85746094 -0.23355173 23.89050739 -4.5 24.5 C-8.7336682 23.89519026 -10.77010591 22.78945399 -14 20 C-16.89045216 15.89742275 -17.47632849 12.73124687 -16.65234375 7.8984375 C-14.01133964 0.21264111 -7.04964557 -1.01894037 0 0 Z M-5 8 C-5.99 8.66 -6.98 9.32 -8 10 C-7.67 11.65 -7.34 13.3 -7 15 C-5.35 14.67 -3.7 14.34 -2 14 C-1.67 12.68 -1.34 11.36 -1 10 C-2.32 9.34 -3.64 8.68 -5 8 Z " fill="#0159DD" transform="translate(107,90)"/>
<path d="M0 0 C3.62259904 1.8837515 5.68975631 4.06926894 7 8 C7.3711875 13.01103128 7.11788946 15.99128499 4 20 C0.19287987 23.41071716 -2.63177519 23.50881108 -7.58984375 23.35546875 C-11.02979826 22.84811728 -12.71319039 21.57266081 -15 19 C-17.52481154 15.51335549 -17.43474022 12.20248882 -17 8 C-12.82936071 0.37779717 -8.34116918 -1.29521261 0 0 Z M-6 8 C-6.66 8.66 -7.32 9.32 -8 10 C-7.91428339 12.09291157 -7.91428339 12.09291157 -7 14 C-6.01 14.33 -5.02 14.66 -4 15 C-3.34 14.67 -2.68 14.34 -2 14 C-2.33 12.35 -2.66 10.7 -3 9 C-3.99 8.67 -4.98 8.34 -6 8 Z " fill="#0159DD" transform="translate(135,175)"/>
<path d="M0 0 C0.70523804 0.00404846 1.41047607 0.00809692 2.13708496 0.01226807 C2.8619812 0.01035461 3.58687744 0.00844116 4.33374023 0.00646973 C5.86698758 0.0051082 7.40024646 0.00880243 8.93347168 0.01715088 C11.28415755 0.02785129 13.63407919 0.01725498 15.98474121 0.00445557 C17.47302415 0.00577717 18.96130662 0.00833957 20.44958496 0.01226807 C21.154823 0.0082196 21.86006104 0.00417114 22.58666992 0 C27.56341011 0.04796821 27.56341011 0.04796821 29.79333496 2.27789307 C30.04333496 4.77789307 30.04333496 4.77789307 29.79333496 7.27789307 C27.33330709 9.73792094 25.94539658 9.52341311 22.58666992 9.55578613 C21.88143188 9.55173767 21.17619385 9.54768921 20.44958496 9.54351807 C19.72468872 9.54543152 18.99979248 9.54734497 18.25292969 9.54931641 C16.71968234 9.55067794 15.18642346 9.54698371 13.65319824 9.53863525 C11.30251237 9.52793484 8.95259073 9.53853115 6.60192871 9.55133057 C5.11364577 9.55000897 3.6253633 9.54744656 2.13708496 9.54351807 C1.43184692 9.54756653 0.72660889 9.55161499 0 9.55578613 C-4.97674018 9.50781792 -4.97674018 9.50781792 -7.20666504 7.27789307 C-7.45666504 4.77789307 -7.45666504 4.77789307 -7.20666504 2.27789307 C-4.74663717 -0.18213481 -3.35872665 0.03237302 0 0 Z " fill="#025ADD" transform="translate(108.2066650390625,35.72210693359375)"/>
<path d="M0 0 C3.04101562 -0.37231445 3.04101562 -0.37231445 6.90625 -0.36328125 C7.58675415 -0.36377975 8.2672583 -0.36427826 8.96838379 -0.36479187 C10.4075004 -0.36245082 11.84662105 -0.35272029 13.28564453 -0.33618164 C15.49158237 -0.31259002 17.69631186 -0.31561947 19.90234375 -0.32226562 C30.7209175 -0.2790825 30.7209175 -0.2790825 33 2 C32.44444444 6.55555556 32.44444444 6.55555556 31 8 C28.70848583 8.08790975 26.41427476 8.10694038 24.12109375 8.09765625 C23.09110008 8.09553383 23.09110008 8.09553383 22.04029846 8.09336853 C19.83932199 8.08775479 17.63844591 8.07520007 15.4375 8.0625 C13.94856917 8.05748676 12.45963676 8.05292355 10.97070312 8.04882812 C7.31376925 8.03778093 3.65689442 8.02050713 0 8 C-1.125 5.6875 -1.125 5.6875 -2 3 C-1.34 2.01 -0.68 1.02 0 0 Z " fill="#0259DD" transform="translate(142,144)"/>
</svg>
